<?xml version="1.0" encoding="UTF-8"?>
<svg width="1907px" height="3486px" viewBox="0 0 1907 3486" version="1.1" xmlns="http://www.w3.org/2000/svg" xmlns:xlink="http://www.w3.org/1999/xlink">
    <title>Path 4</title>
    <g id="landing" stroke="none" stroke-width="1" fill="none" fill-rule="evenodd">
        <g id="Artboard" transform="translate(0.000000, -159.000000)" fill="#8E1C39">
            <path d="M1273.24996,328.054789 C1280.52071,357.801505 1262.53137,384.982347 1219.28193,409.597315 C1170.86831,456.876584 1190.72069,549.356819 1153.95743,628.866477 C1117.19417,708.376134 1063.18515,804.371775 1081.69238,842 C1100.1996,879.628225 1027.46701,950.824302 1027.46701,1046.45109 C1027.46701,1142.07788 1069.0389,1381.8503 862.312585,1292.55589 C724.495043,1233.02629 536.724181,1233.02629 299,1292.55589 C214.663212,1308.69288 161.620336,1430.79941 139.871371,1658.87548 C107.247924,2000.9896 279.676255,2039.90003 266.465448,2382 C253.254642,2724.09997 -50.9973318,2528.83797 -41.5927319,2763.50292 C-32.188132,2998.16787 -40.5381363,3054.23847 194.724958,3178.33733 C284.88569,3225.89619 -5.57439446,3470.33914 139.871371,3534.78329 C247.440563,3582.44508 605.003889,3399.43993 932.833536,3428.28076 C1260.66318,3457.12159 1391.34359,3711.10961 1584.71232,3627.35672 C1778.08106,3543.60383 1948.94725,3178.77547 1808.24705,3058.05445 C1667.54685,2937.33343 1266.07591,3262.81492 1153.95743,3248.14675 C1041.83895,3233.47857 1044.72967,2830.94382 961.12957,2580.97958 C877.529472,2331.01534 417.289185,2541.63024 405.058049,2391.80369 C392.826914,2241.97714 662.260404,2308.44456 819,2279.26661 C862.569886,2271.15583 989.776701,2211.31767 1060.46926,2081.52061 C1168.14174,1883.82553 1312.05135,1809.08742 1473.18631,1875.10269 C1634.32127,1941.11796 1805.23786,1884.9574 1877.42333,1646.68233 C1949.6088,1408.40726 1732.46176,1289.38571 1738,1000.98639 C1743.53824,712.587081 1900.6149,600.151781 1900.6149,439 C1900.6149,277.848219 1953.23161,208.74158 1738,166.828567 C1597.87031,139.540487 1445.48467,186.325527 1280.84306,307.183688 L1280.84306,307.183687 C1274.32686,311.967018 1271.3307,320.202559 1273.24996,328.054789 Z" id="Path-4"></path>
        </g>
    </g>
</svg>