<?xml version="1.0" encoding="UTF-8"?>
<svg width="1440px" height="3072px" viewBox="0 0 1440 3072" version="1.1" xmlns="http://www.w3.org/2000/svg" xmlns:xlink="http://www.w3.org/1999/xlink">
    <title>background</title>
    <defs>
        <rect id="path-1" x="0.000994923857" y="0" width="1440" height="3072"></rect>
    </defs>
    <g id="landing" stroke="none" stroke-width="1" fill="none" fill-rule="evenodd">
        <g id="background" transform="translate(-0.000995, 0.000000)">
            <mask id="mask-2" fill="white">
                <use xlink:href="#path-1"></use>
            </mask>
            <g id="Mask"></g>
            <path d="M1440.00004,2718.359 L1441.5407,2718.37136 C1479.81647,2719.29843 1510.40124,2731.53769 1528.7839,2760.13897 C1558.43009,2806.26499 1529.72118,2914.55423 1442.65716,3085.00669 L1440.00099,3090.19095 L1440.00004,2718.359 Z M1440.00004,1542.416 L1440.00004,2718.359 L1439,2718.351 L1439,1542.979 L1440.00004,1542.416 Z M1440.00099,1024 C1506.84664,1288.23539 1525.29665,1443.64906 1495.35101,1490.241 C1481.05338,1512.48644 1462.89023,1529.1103 1441.9996,1541.29119 L1440.00004,1542.416 L1440.00099,1024 Z M6.22393057,973.819856 C212.460738,914.016851 398.016284,914.627085 562.89057,975.65056 C811.27174,1067.58171 683.157213,799.416163 743.858536,649.878409 L743.858536,649.878409 L743.866679,649.884607 L744.27363,648.420562 C757.979968,600.244079 798.825879,565.590229 783.64614,532.809664 C758.685716,478.907766 819.667611,387.63073 854.958424,312.866477 C890.249237,238.102223 870.043715,120.221389 931.593275,83.5950523 C972.215985,59.4216704 985.165304,31.869433 970.441232,0.938340084 L970.441232,0.938340084 L969.986577,0 L1439.00099,0 L1439,1542.979 L1437.48171,1543.8338 C1309.60698,1613.27068 1086.12869,1525.22991 1014.18256,1535.65372 L1012.04901,1536 C847.040332,1565.80789 743.450398,1841.9905 617.050911,1923.36171 C464.457734,2021.59542 187.506617,1940.92404 133.799948,2002.08574 C114.921267,2023.58498 105.678301,2041.92227 106.07105,2057.09331 C105.678301,2072.26867 114.921267,2090.60597 133.799948,2112.1052 C187.506617,2173.26691 464.457734,2092.59552 617.050911,2190.82924 C743.450398,2272.20044 701.085241,2902.75794 866.093917,2932.56582 C932.375948,2944.5393 1259.06719,2719.73481 1435.09097,2718.32072 L1435.09097,2718.32072 L1439,2718.351 L1439.00099,3072 L0.000994923857,3072 L-6.07541795e-13,975.641 Z" id="Combined-Shape" fill="#8E1C39" mask="url(#mask-2)"></path>
        </g>
    </g>
</svg>