<?xml version="1.0" encoding="UTF-8"?>
<svg width="1442px" height="1026px" viewBox="0 0 1442 1026" version="1.1" xmlns="http://www.w3.org/2000/svg" xmlns:xlink="http://www.w3.org/1999/xlink">
    <title>Group</title>
    <defs>
        <rect id="path-1" x="0.391855091" y="0.842423004" width="1440" height="1024"></rect>
    </defs>
    <g id="graphics" stroke="none" stroke-width="1" fill="none" fill-rule="evenodd">
        <g id="Desktop-HD-Copy" transform="translate(1.000000, 0.000000)">
            <g id="Group" transform="translate(-0.391855, 0.157577)">
                <mask id="mask-2" fill="white">
                    <use xlink:href="#path-1"></use>
                </mask>
                <g id="Mask"></g>
                <g mask="url(#mask-2)" fill="#000000" fill-opacity="0.304031906" id="Path">
                    <g transform="translate(-225.000000, -180.000000)">
                        <path d="M584.358359,69.2134969 C627.056881,106.145481 538.835939,239.444493 490.872238,404.694949 C442.908536,569.945405 652.774216,575.638023 565.748172,643.749248 C478.722128,711.860474 421.636754,775.803369 430.180494,843.680473 C438.724235,911.557578 517.971731,922.61558 530.143239,972.033797 C542.314746,1021.45201 444.63727,1018.91845 480.347304,1092.19781 C516.057338,1165.47716 912.217704,1182.42749 809.26127,1216.62519 C740.623648,1239.42366 589.319851,1249.56882 355.34988,1247.06067 L125,249.305719 C402.773224,104.622915 555.892677,44.592174 584.358359,69.2134969 Z" transform="translate(475.643247, 655.638073) rotate(13.000000) translate(-475.643247, -655.638073) "></path>
                        <path d="M1527.35953,220.922286 C1479.18189,198.876741 1457.03656,258.307736 1409.07286,423.558192 C1361.10915,588.808648 1447.3428,636.994842 1360.31676,705.106067 C1273.29071,773.217292 1518.81579,800.791562 1527.35953,868.668667 C1535.90327,936.545771 1225.32761,988.453898 1237.49911,1037.87211 C1249.67062,1087.29033 1362.83789,1037.78169 1398.54792,1111.06105 C1434.25796,1184.3404 1830.41832,1201.29074 1727.46189,1235.48844 C1658.82427,1258.2869 1455.41514,1247.95785 1117.23451,1204.50127 L1117.23451,180.501266 C1336.06377,54.1527539 1480.01652,-5.86403573 1549.09274,0.450897121 C1654.12146,10.0525996 1726.83725,187.997853 1702.82509,256.460728 C1687.60861,299.845585 1630.94385,268.321303 1527.35953,220.922286 Z" transform="translate(1430.860813, 623.627959) scale(-1, 1) translate(-1430.860813, -623.627959) "></path>
                    </g>
                </g>
            </g>
        </g>
    </g>
</svg>