<svg id="Layer_3" data-name="Layer 3" xmlns="http://www.w3.org/2000/svg" viewBox="0 0 491.46 496.36"><defs><style>.cls-1{fill:#fff;}.cls-2{fill:#2e2e2e;}.cls-3{fill:#f0f0f0;}</style></defs><title>Caveman Consulting Vector Logo Wht</title><path class="cls-1" d="M245.38,498.47c-19.82-.36-39.4-2.43-58.58-7.39a232,232,0,0,1-26.13-8.46c-10.19-4-20.18-8.53-30-13.26-4.9-2.35-9.4-5.56-14-8.56-5.88-3.85-11.71-7.78-17.42-11.87a94.85,94.85,0,0,1-7.74-6.59c-5.85-5.22-12-10.16-17.41-15.8-6.8-7.07-13.12-14.62-19.38-22.19C51.51,400.49,49.06,396,46,392c-7.2-9.49-12.3-20.18-17.6-30.75-1.82-3.63-3.14-7.51-4.86-11.2-8.21-17.68-12.79-36.42-15.83-55.53a250.43,250.43,0,0,1-1.73-65A245.78,245.78,0,0,1,21,165.5c2.63-6.81,5.63-13.5,8.9-20,4-8.07,8.15-16.15,12.91-23.8,4.91-7.88,10.59-15.29,16-22.85,5.89-8.19,13.21-15.12,20-22.55,7.92-8.71,17.12-15.92,26.42-23,7.58-5.74,15.65-10.85,23.59-16.1,2.58-1.71,5.54-2.83,8.16-4.48,11.35-7.16,23.78-12,36.34-16.35,8.24-2.87,16.76-4.91,25.17-7.28,24-6.75,48.45-7.88,73.11-6.44,8.41.49,16.79,1.72,25.16,2.84a79.3,79.3,0,0,1,13.21,2.57c13.05,4,26.44,7.13,38.94,12.86,6,2.74,12.18,5.13,17.9,8.35,8.88,5,17.68,10.21,26.05,16,7.51,5.19,14.49,11.17,21.56,17,4,3.29,7.82,6.79,11.47,10.44s6.66,7.34,10,11c2.5,2.81,5.25,5.44,7.45,8.47,5.42,7.49,10.82,15,15.79,22.81a184.56,184.56,0,0,1,11.44,20.21c4.14,8.75,7.46,17.9,11.24,26.83,5.63,13.32,8.63,27.35,11,41.5A251.58,251.58,0,0,1,495,268.92c-1.82,19.26-5.39,38.18-11.88,56.4C479.31,336,474.52,346.23,470,356.6a106.92,106.92,0,0,1-5.48,10.91c-6.42,11.15-13.15,22.14-21.3,32.13-6.39,7.84-13.21,15.32-19.92,22.89-7.59,8.57-16.47,15.73-25.49,22.66-7.49,5.74-15.38,11-23.24,16.22-3.43,2.29-7.33,3.89-10.82,6.11-10.38,6.59-21.79,10.94-33.21,15.19-7.76,2.89-15.78,5.08-23.7,7.5-11.88,3.64-24.13,5.39-36.43,6.62C262.12,497.66,253.74,497.94,245.38,498.47ZM375.17,226c2.91,4.26,6.57,6.57,10.44,8.52,6.4,3.24,13,6.16,19.3,9.52a34.38,34.38,0,0,1,7.34,5.56c4.2,4,5.16,10.66,1,15.1-2.5,2.65-4.85,5.44-7.23,8.2-2.75,3.19-5.85,6.17-8.09,9.7-1.83,2.88-2.17,4.91,1.81,6.68a43.32,43.32,0,0,1,5.16,2.54,16.59,16.59,0,0,1,3.87,3.15c3.14,3.6,2.68,7.74,1.48,11.94-.63,2.19-1.28,4.38-1.76,6.6-.58,2.68.65,4.54,3.34,5,4.29.69,8.62,1.79,12.91,0,2.65-1.08,5.29-2.21,7.85-3.48,3.07-1.54,6.38-.28,7,3.11a10.34,10.34,0,0,1-.66,4.91c-1.62,4.64-3.38,9.24-5.23,13.81s-3.83,9.24-5.94,13.76c-1.77,3.79-3.74,7.48-5.76,11.15-1.87,3.38-3.81,6.74-5.93,10a55.92,55.92,0,0,1-5,6.37c-2.6,2.91-5.29,5.76-8.07,8.49-2,2-4.26,3.7-6.45,5.58,3.1,3.87,6.16,7.67,9.29,11.56,1.4-1.58,2.41-2.74,3.44-3.87,3.18-3.5,6.51-6.88,9.52-10.51,2.82-3.42,5.44-7,7.91-10.69,4.7-7,9.65-13.83,13.71-21.17A284.14,284.14,0,0,0,453,331.25a238.94,238.94,0,0,0,8.6-23.73,195.61,195.61,0,0,0,7.32-37c3.41-32.16,1-63.73-9.69-94.44-2-5.66-3.8-11.4-6.18-16.89-4.91-11.32-9.92-22.62-17.26-32.68-2.75-3.76-4.91-8-7.79-11.61-5.44-6.88-11.06-13.65-16.89-20.21-7.79-8.76-16.79-16.25-26-23.39a152.28,152.28,0,0,0-14.9-10C362.91,56.89,355.6,52.53,348,48.8a179.07,179.07,0,0,0-47.53-15.69c-7.26-1.29-14.44-3.26-21.74-4C259.14,27,239.63,27.22,220.12,31c-15.7,3-31.14,6.73-46,12.58a193.06,193.06,0,0,0-19.78,9.38c-8.15,4.35-16.21,8.91-24.05,13.8-4.67,2.92-8.85,6.64-13.21,10a117.55,117.55,0,0,0-9.66,7.8C101.5,90.23,95.83,96.18,90.06,102a58,58,0,0,0-4.31,4.42c-3.9,4.92-7.86,9.81-11.48,15-4.49,6.4-9,12.8-12.87,19.6-4.5,8-8.47,16.29-12.25,24.64a205.12,205.12,0,0,0-7.88,20.18,216.07,216.07,0,0,0-10.59,58.67c-1.34,31.23,2.82,61.61,14.87,90.65,3.77,9.08,7.67,18.15,12.24,26.85A156.08,156.08,0,0,0,70.85,382.5a284.25,284.25,0,0,0,19.28,23.41A201.16,201.16,0,0,0,145,447.66c8.7,4.55,18,7.91,27,11.87,1.44.63,2.2.14,2.83-1.08.94-1.83,2-3.62,2.84-5.5,2.75-6,5.22-12.18,8.2-18.08,1.87-3.7.17-7.23.38-10.82a1.89,1.89,0,0,0-.47-1,75.13,75.13,0,0,1-5-7.15c-1.94-3.6-3.39-7.45-5.17-11.13a62,62,0,0,0-5.06-9.49c-1.43-2-2.23-3.73-1.9-6.06.67-4.62,1.37-9.23,2-13.85a3.54,3.54,0,0,0-.5-2.46c-2.89-3.56-5.88-7.06-8.92-10.5a4.71,4.71,0,0,0-4.28-1.7q-11.16,1.15-22.36,2c-9.15.73-18.31,1.65-27.52.75a7,7,0,0,1-6-4.8c-.32-1.13-.59-2.28-1-3.38a20.18,20.18,0,0,1-.26-13c1.31-4.69,3.76-9.37,1.27-14.61-2.11-4.44-3.56-9.19-5.45-13.74-1.8-4.34-4.49-8.53-3.8-13.41.56-3.89,2-7.66,3-11.48l3.61-13.21c-3.43.54-6.26.87-9,1.45-5.57,1.15-10.27-.27-14.05-4.51-2.06-2.32-2.54-5.3-1.24-7.59,1.93-3.38,4-6.69,6-10,1.24-2.1,2.46-4.21,3.82-6.53-2.77-.43-3.61-2.17-4.06-4.22a24.93,24.93,0,0,1-.62-3.5q-1.35-20.07-2.62-40.14a8.54,8.54,0,0,1,.35-3.06c1.25-3.93,5.74-5.05,8.29-1.89,1.28,1.59,1.73,3.84,2.54,5.74,8.88-16.14,14.5-34,21.07-51.87-11-.5-20.21,2.48-28.13,9.21-3.79,3.22-7.28,6.8-10.86,10.26-2.09,2-4.86,2.93-6.68,1.65-2-1.44-3.57-3.11-2.75-6.63A62.51,62.51,0,0,1,72.19,140c3.64-4.69,7.53-9.26,12.84-12.26,3.33-1.88,6.5-4.11,10-5.6a60.59,60.59,0,0,1,17.2-4.09,3.19,3.19,0,0,0,2-1.3c1.24-1.9,2-4.12,3.47-5.85a140.91,140.91,0,0,1,11-12.53A114.62,114.62,0,0,1,142,87.3a131.85,131.85,0,0,1,12.93-7.55c3.4-1.87,6.81-3.76,10.37-5.28,4.94-2.11,10-3.9,15-5.79,5.58-2.11,11.35-3.58,17.33-3.13,2.36.17,5.28,1,6.78,2.69,2,2.13,3.44,1.6,5.59,1,5.42-1.43,10.86-2.88,16.39-3.78a77.65,77.65,0,0,1,12.86-.71c7.55,0,15.21-.36,22.62.78,8.27,1.27,16.31,4,24.45,6.16,3,.77,6,1.85,9,2.15,4.17.41,11-3.13,11.34-8.56.09-1.44.29-2.88.44-4.32,3.33.6,8.55,4.79,10.46,8.83,3.18,6.74.95,12.94-2.6,19,.62.36,1.1.68,1.61.94,2.08,1,4.4,1.77,6.21,3.16,4.87,3.73,9.67,7.59,14.22,11.71a51.07,51.07,0,0,1,8,8.86c3.21,4.68,3.48,10.22,3.38,15.75-.08,4.81,0,9.61,0,14.4,3.28.72,6.53,1.41,9.76,2.14a22.63,22.63,0,0,0,3.87.92c3.68.17,6.61,2.25,9.78,3.67a15.08,15.08,0,0,1,4.74,3.14c1.89,2,4.14,4.09,4.88,6.55a35.64,35.64,0,0,1,1.06,15.17c-.9,6.88-1.34,13.85-1.67,20.79-.26,5.21.71,7.28,6.48,7.6,4.11.24,8.47.5,12.31-.64,2.81-.82,4.93-1.32,7.68-.16,2.12.9,3.86,4.11,2.62,6.2-1.94,3.25-3.66,6.91-6.41,9.33A30.49,30.49,0,0,1,383,226C380.58,226,378.16,226,375.17,226ZM167.52,171c1.52.53,2.79.92,4,1.41,5.94,2.36,9,6.51,8.05,11.72a19.31,19.31,0,0,1-2.92,7.12c-3,4.54-5.72,9.13-6.06,14.75-.21,3.32-.55,6.64-.66,10-.06,2,.68,2.33,2.53,1.54a31.18,31.18,0,0,0,3.38-1.67c3.2-1.85,4.25-1.82,7.23.39a2.92,2.92,0,0,0,3.67.32c2-1.24,4-2.74,6.16-3.35,5.55-1.53,11.17-2.84,16.83-3.85,8.58-1.54,17.18-3.23,25.71.6,2.4,1.07,3.95,2.88,3.74,5.56-.13,1.61.05,3.24,0,4.85-.18,4.29.13,8.69-.77,12.82A92.39,92.39,0,0,1,228.62,258a1.62,1.62,0,0,0,.37,2.44c2.7,2.28,5.5,4.48,8,7,4.33,4.4,8.68,8.83,12.61,13.59s7.82,10.09,9.91,16.19c2,5.93,3.95,11.92,5.55,18,2.05,7.71,3.49,15.59,5.65,23.27,1.83,6.54,4.13,13,6.56,19.31a39.22,39.22,0,0,0,15.12,18.57,19.87,19.87,0,0,0,10.18,3.25c7.11.47,13.73-2.14,20.66-2.55,5.91-.35,11.82-1.17,17.71-1a27.62,27.62,0,0,1,10.37,2.79c3.65,1.7,6.8,4.44,10.34,6.41a33.5,33.5,0,0,0,8.3,3.42,22.32,22.32,0,0,0,7.52.07A19.93,19.93,0,0,0,384,387c2.83-1.41,5.33-3.43,8.06-5a40.57,40.57,0,0,0,14.66-15.33c3.33-5.83,7-11.41,9.73-17.63s6.26-11.88,9.39-17.83c.3-.58.55-1.65.25-2a2.5,2.5,0,0,0-2.11-.7c-5.35,1.54-10.48.41-15.47-1.34-6.18-2.16-11.33-7.28-9.35-15.16.7-2.78,1.45-5.56,2.26-8.32.49-1.7.38-2.92-1.5-3.8a53.84,53.84,0,0,1-7.37-4.06c-3.62-2.42-5.67-6-5.31-10.36a18.36,18.36,0,0,1,4.36-10.5c4.48-5.24,9.13-10.34,13.74-15.46,1.51-1.69,1.63-2.68-.34-4-3.95-2.58-8-5.08-12.12-7.32-5.44-3-11.18-5.39-16.53-8.5A26,26,0,0,1,364,224.33c-1-3.39.86-8,4.15-9.3a5,5,0,0,1,3.59,0c4.38,2.12,9,1.92,13.51,1.35a56.51,56.51,0,0,0,7.76-2l-.12-.79a16.47,16.47,0,0,1-2.33,0c-3.28-.51-6.8-.49-9.78-1.74-6.07-2.54-9.38-5.86-9.25-13.22.15-8.42,1.12-16.82,1.54-25.23a38.8,38.8,0,0,0-.58-9.26,6.89,6.89,0,0,0-3-3.76,24.94,24.94,0,0,0-6.43-3c-4.51-1.41-9.11-2.5-13.67-3.74-2.27-.62-4.57-1.15-6.78-1.92-2.95-1-4.21-3.22-4.09-6.36.22-5.78.19-11.56.49-17.32a17.45,17.45,0,0,0-6-14.41c-2.61-2.41-5.21-4.83-7.89-7.16-4.94-4.29-10.18-8.07-16.77-9.51-2.88-.63-5.39-3.83-4.72-6.13A32.93,32.93,0,0,1,306,85.48c1.32-2.65,3.49-5,3.53-8.35a50.23,50.23,0,0,1-4.8,3.79c-5.27,3.22-10.84,2.77-16.51,1.15-7.75-2.21-15.51-4.32-23.28-6.44-8.16-2.23-16.51-1.11-24.78-1.35a80.05,80.05,0,0,0-24.34,3c-1.7.48-3.59.58-5.1,1.39-3.3,1.79-6.4,3.93-9.6,5.9-5.4,3.33-10.85,6.6-16.23,10-2.31,1.45-4.5,3.08-6.68,4.58,4.29,0,8.44.21,12.56,0,9.82-.58,19.63-1.5,29.45-2,11.25-.61,22.36.3,33.09,4.07,2.37.83,4.81,1.49,7.1,2.5,4.91,2.17,9.88,4.28,14.57,6.89A7.71,7.71,0,0,1,279.3,118a7.19,7.19,0,0,1-4.46,6c-3.49,1.6-7,3.1-10.62,4.5-8.09,3.15-13.31,9.34-17.59,16.5-1.26,2.12-.68,3.44,1.66,4.26,4.46,1.56,9,2.89,13.41,4.61A69.27,69.27,0,0,1,287,170.25c3.26,3.4,6.32,7,9.34,10.63a69.78,69.78,0,0,1,12.49,22.58c.88,2.59.64,5.71.29,8.52-.32,2.61-3.23,3.4-5,1.43a23,23,0,0,1-3.6-5.51c-2-4.19-3.49-8.67-5.74-12.72-4.29-7.75-10.11-14.37-16.57-20.4a50.18,50.18,0,0,0-16.08-10.45c-5.72-2.22-11.5-4.27-17.27-6.38-3.33-1.22-6.2-3.22-7.53-6.48a10.6,10.6,0,0,1,.42-9.45,70,70,0,0,1,6.64-9.89c3.6-4.3,7.53-8.33,12.86-10.67,3.23-1.42,6.34-3.11,9.82-4.84a23.39,23.39,0,0,0-2.85-1.57c-4.63-1.73-9.29-3.42-13.94-5.09a60,60,0,0,0-21.35-3.54c-9.69.17-19.36,1-29,1.58-10.86.63-21.72,1.27-32.58,1.84a13.6,13.6,0,0,1-4.16-.5c-2.37-.65-4.19-2.15-4.54-4.64A5.81,5.81,0,0,1,161.32,99c2-1.41,3.85-3,5.91-4.31,7.51-4.72,15.08-9.34,22.61-14,2.09-1.31,4.12-2.72,6.63-4.39-1-.12-1.31-.22-1.65-.21-.74,0-1.48.09-2.22.14-6.57.39-12.43,3.25-18.36,5.64-5.53,2.23-10.75,5.21-16.09,7.9a75.36,75.36,0,0,0-18,12c-3.39,3.17-6.73,6.39-10,9.71-4.09,4.18-6.18,9.58-8.6,14.77-1.32,2.85-3.8,3.74-6.8,2.95a13.56,13.56,0,0,0-5.44-.39A46,46,0,0,0,85.86,140a70.2,70.2,0,0,0-5.19,5.68,1.33,1.33,0,0,0,1.31-.07,36.26,36.26,0,0,1,20.14-6c4.86,0,9.73.22,14.6.46s7.19,3.38,6.14,8.12c-.45,2-.87,4-1.37,6.31.75-.25,1.09-.34,1.41-.47,6.28-2.57,12.58-5.11,18.85-7.72a87.87,87.87,0,0,1,24.08-5.89,28,28,0,0,1,7.48.21c4.38.7,6,3.74,4.66,8a12.33,12.33,0,0,1-.77,1.84c-2.52,4.94-5.1,9.84-7.55,14.81C168.79,167.1,168.25,169,167.52,171Zm5.25,188.42c1.53,1.93,2.61,3.32,3.72,4.69,3.12,3.84,5.41,7.84,4.18,13.15a89,89,0,0,0-1.32,9.68,3.87,3.87,0,0,0,.07,1.95c2.1,4.59,4.23,9.17,6.43,13.72,1.76,3.64,3.61,7.24,5.48,10.83,1.58,3,3.24,6,5,9.27.8-1.68,1.41-2.86,1.93-4.08s.86-2.51,1.45-3.7c1.6-3.24,4.12-3.81,7.37-2.23a11.29,11.29,0,0,0,10.87-.21c4.77-2.73,6.65-7.43,7.55-12.57.7-4,1-8.1,1.94-12,.85-3.41,4.53-4.22,7.2-1.95.94.8,1.81,1.69,2.71,2.53,3.16,2.94,6.56,5.66,9.42,8.86a24,24,0,0,1,5.8,14.91c.09,1.37,0,2.76,0,4.14,3.28.47,5.44-1.23,7.47-2.82,3.39-2.66,6.36-5.66,6.28-10.5,0-2.52,1.44-4.25,3.59-5.36s4.3-2.21,6.53-3.14c3-1.28,6.17-2.37,9.24-3.59,2.5-1,5-2.08,7.71-3.22a6.91,6.91,0,0,0-1.26-.85,30.55,30.55,0,0,1-11.89-8.09c-2.88-3-5.16-6.52-7.73-9.8-4.52-5.78-6.08-12.91-8.64-19.55-1.58-4.1-2.18-8.57-3.26-12.86-1.14-4.52-2.33-9-3.48-13.53-1.61-6.29-2.87-12.69-4.91-18.84-2.46-7.45-6.9-13.88-12-19.76a116.79,116.79,0,0,0-8.63-8.75c-2.63-2.43-5.53-4.58-8.39-6.92-1.65,3.24-3.07,6.25-4.72,9.12a6.94,6.94,0,0,1-2.67,2.39,13.71,13.71,0,0,1-4.33,1.63c-2.14.33-4.46.72-6.48.22s-2.76-2.77-2.6-4.91,1.06-3.8,3.4-4.37c3-.74,5.67-1.88,6.45-5.48a18.37,18.37,0,0,1,2.28-5,165.53,165.53,0,0,0,11.5-23.56,49.17,49.17,0,0,0,3-18.7c0-1.44-.62-2.05-2-2.05a39.42,39.42,0,0,0-5.33.12c-6.95.95-13.9,1.94-20.83,3.09-1.62.27-3.83.78-4.57,1.94a56.11,56.11,0,0,0-5.61,11.13c-1.22,3.41-1.8,4.59-5.41,5.33.47,2.94-.71,5-3.07,7a31.77,31.77,0,0,0-6.35,7c-1.47,2.24-3.44,3.89-5.7,3.37a5.49,5.49,0,0,1-4.14-5.72c.06-.77.18-1.54.23-2-1.61-.8-3.26-1.12-4.12-2.13-2.21-2.56-1.61-5.87,1-8.21a34.57,34.57,0,0,0,2.68-3c-4.45.59-7.21-1.35-6.69-7.12a7.39,7.39,0,0,0-1-.13q-24.21,1.13-48.42,2.23a3.49,3.49,0,0,0-3.08,1.69c-1.77,2.7-3.63,5.33-5.43,8-3,4.46-6.06,8.89-9,13.39-2.19,3.34-4.36,6.7-6.32,10.17-1.33,2.34-.22,4.24,2.46,4.58a17.66,17.66,0,0,0,3.33,0c4.65-.29,9.29-.67,13.94-.88a3,3,0,0,1,3.38,3.31,24.45,24.45,0,0,1-.56,5.46q-1.75,7.89-3.76,15.71c-.76,3-1.76,5.94-2.54,8.93a3.7,3.7,0,0,0,.26,2.11c3.12,7.94,6.35,15.84,9.38,23.81.81,2.12,2.41,4.18,1.32,6.75a30.62,30.62,0,0,0-1.86,5.19c-1,4.57-3.37,9.08-1,14,.52,0,1,.1,1.54.07,11.46-.62,22.92-1.17,34.37-1.91,10.28-.66,20.53-1.57,30.8-2.31a5.15,5.15,0,0,1,5.41,4.52,5.25,5.25,0,0,1-4.76,5.86C176.24,359.49,174.85,359.37,172.77,359.37Zm96.55,85.86c-3.68-2.49-3.56-5.92-2.5-9.55.41-1.42,1-2.79,1.39-4.21a4.18,4.18,0,0,1,4.19-3.32c2.13.08,3.57-.9,5.18-1.8a4.52,4.52,0,0,1,6.69,3.81c.06,2,0,4.08,0,6,3.32-.2,6.49-.57,9.65-.53a24.19,24.19,0,0,0,13.52-3.47,6,6,0,0,1,2.55-.62c4.64-.41,8.2,2.49,12.19,4.07,2.39.94,4.69,2.37,7.16,2.8,7.35,1.29,14.77,2.68,22.16.15a5.35,5.35,0,0,0,2.78-1.59c1.06-1.74,1.55-3.82,2.55-5.6,2.35-4.24,3.23-9.25,7.17-12.68,2.06-1.8,3.81-3.38,6.77-2.44,1.82.57,3.73.87,5.6,1.29a87.44,87.44,0,0,1,9.4,2.24c1.27.45,1.93.52,2.89-.3,2.25-1.91,4.59-3.72,6.84-5.63,1.27-1.08,2.45-2.26,3.72-3.45-2.47-2.76-4.05-6.26-7.66-5.5-1.27,1.89-2,3.74-3.37,4.8a14,14,0,0,1-5.56,2.51,5.25,5.25,0,0,1-5.74-2.26c-1.79-2.51-2.93-5.08-2.36-8.23a3.89,3.89,0,0,0-.07-1.33c-4.73-1.68-9.07-3.29-13.47-4.72a24.38,24.38,0,0,0-4-.5c-.84-.13-1.92-.14-2.42-.66-2.46-2.59-5.23-5.05-7-8.07-2.88-4.89-6.69-5-11.36-3.29-2.09.79-4.23,1.43-6.26,2.11.34,1.73.65,3.75,1.16,5.72a25.69,25.69,0,0,1-1.53,16.72c-.78,1.84-2.15,3.6-4.46,3.84-4.12.43-8.25.9-12.39,1.07-4.44.19-9.43-1.71-10.46-7.44-.41-2.25-.49-5-3.34-6.05a1.7,1.7,0,0,1-.75-1.06c-.41-1.56-1.29-1.49-2.53-1-2.29,1-4.64,1.86-7,2.77-4,1.59-8.09,3.14-12.09,4.81-.45.18-.7,1-.88,1.59a39.88,39.88,0,0,1-1.45,4.84,27.77,27.77,0,0,1-9,10.31c-2.93,2.18-6.07,4-9.74,4.47s-7.3-.28-10.06-3.34c-2.08-2.32-2.14-5.06-2.15-7.91,0-6.46-2.87-11.55-7.88-16a28.08,28.08,0,0,0-.61,2.83A25,25,0,0,1,230,413.64a30,30,0,0,1-6.66,6.56c-1.53,1.06-2.59,1.81-2.21,3.68.8,4-5.83,9.9-9.1,10.35-3.53.5-6.74.27-9.3-3.06-1.21,2.53-2.05,4.73-3.26,6.71-1.36,2.24-3.21,4.18-4.54,6.43a62.71,62.71,0,0,0-3.83,7.86c-.43,1-.08,2.37-.36,3.5-.75,3.05-3.06,4-5.9,3.91-.56,3.56-.52,3.85,1.3,4.3,8,1.95,15.92,3.93,23.92,5.71,3.3.73,6.7,1,10.06,1.46a13.46,13.46,0,0,0-5-3c-3.64-1-7.37-1.56-11.07-2.28-2.73-.53-5.07-3.5-4.55-6.17a30.74,30.74,0,0,1,1.76-5.46c1.22-3.06,2.6-6.06,3.87-9.11,1.65-4,4.64-6.36,9.13-5.33a37,37,0,0,1,12,4.8,8.5,8.5,0,0,0,6.28,1.53c1.33-.23,3.2.87,4.34,1.91a3.31,3.31,0,0,1,.48,4.48,34.29,34.29,0,0,1-3.13,3.38c.3,1.07.69,2.49,1.08,3.92,1.56-2,2.41-4.09,3.65-5.95,1-1.51,2.41-3.7,3.82-3.85a119.37,119.37,0,0,1,17.93-.73C264.47,449.39,267.18,448.58,269.32,445.23ZM112.26,220.67l47.49-2.26a72.76,72.76,0,0,1,.07-9c.61-4.82,1.15-9.76,2.69-14.32,1.22-3.59,3.88-6.69,6-10,.9-1.43,1.19-2.57-.86-3.17-1.48-.43-2.93-1-4.42-1.37a7.54,7.54,0,0,1-5.85-7.13c-.27-5,1.26-9.42,3.68-13.7,1.51-2.66,2.75-5.49,4.27-8.58a21.84,21.84,0,0,0-3.67.2c-4.23,1-8.46,2.1-12.63,3.34a80.93,80.93,0,0,0-8.52,3.08c-4.78,2-9.63,4-14.19,6.42-4,2.14-7.72,4.32-12.67,1.87-1.44,4.26-2.57,8.38-4.2,12.3-3.22,7.8-6.72,15.48-10.09,23.21-.5,1.14-1.24,2.32,0,3.45,2.56,2.37,5.32,4.55,7.65,7.13S111.88,216.82,112.26,220.67ZM342.14,450.12l-.16-.73-2.41-.13c-7.34-.54-14.5-1.78-21.19-5-3.64-1.78-7.18-4.8-11.44-1.3a1.72,1.72,0,0,1-.42.13,41.91,41.91,0,0,1-14.85,2c-2.38,0-5.17.07-7.08,1.24A113.63,113.63,0,0,0,273.13,455c-2.58,2.06-5.19,3.77-8.68,3.78-5.39,0-10.78.17-16.17.37a2.76,2.76,0,0,0-1.9,1c-1.93,2.94-3.68,6-5.6,9a31.12,31.12,0,0,1-2.92,3.24C275,473.62,309.23,465,342.14,450.12ZM87.25,207.42c.43,5.09.81,9.55,1.2,14.2L100.7,221l.33-.55ZM95,231.8l-6,.44c.18,2.49.34,4.64.54,7.38Z" transform="translate(-4.67 -2.11)"/><path class="cls-2" d="M167.52,171c.73-1.94,1.27-3.85,2.13-5.61,2.45-5,5-9.87,7.55-14.81a12.33,12.33,0,0,0,.77-1.84c1.37-4.23-.28-7.27-4.66-8a28,28,0,0,0-7.48-.21,87.87,87.87,0,0,0-24.08,5.89c-6.27,2.61-12.57,5.15-18.85,7.72-.32.13-.66.22-1.41.47.5-2.32.92-4.32,1.37-6.31,1-4.74-1.25-7.87-6.14-8.12s-9.74-.46-14.6-.46a36.26,36.26,0,0,0-20.14,6,1.33,1.33,0,0,1-1.31.07A70.2,70.2,0,0,1,85.86,140a46,46,0,0,1,23.45-11.26,13.56,13.56,0,0,1,5.44.39c3,.79,5.48-.1,6.8-2.95,2.42-5.19,4.51-10.59,8.6-14.77,3.25-3.32,6.59-6.54,10-9.71a75.36,75.36,0,0,1,18-12c5.34-2.69,10.56-5.67,16.09-7.9,5.93-2.39,11.79-5.25,18.36-5.64.74,0,1.48-.12,2.22-.14.34,0,.69.09,1.65.21-2.51,1.67-4.54,3.08-6.63,4.39-7.53,4.69-15.1,9.31-22.61,14-2.06,1.3-3.92,2.9-5.91,4.31a5.81,5.81,0,0,0-2.77,5.69c.35,2.49,2.17,4,4.54,4.64a13.6,13.6,0,0,0,4.16.5c10.86-.57,21.72-1.21,32.58-1.84,9.68-.55,19.35-1.41,29-1.58A60,60,0,0,1,250.22,110c4.65,1.67,9.31,3.36,13.94,5.09a23.39,23.39,0,0,1,2.85,1.57c-3.48,1.73-6.59,3.42-9.82,4.84-5.33,2.34-9.26,6.37-12.86,10.67a70,70,0,0,0-6.64,9.89,10.6,10.6,0,0,0-.42,9.45c1.33,3.26,4.2,5.26,7.53,6.48,5.77,2.11,11.55,4.16,17.27,6.38a50.18,50.18,0,0,1,16.08,10.45c6.46,6,12.28,12.65,16.57,20.4,2.25,4,3.72,8.53,5.74,12.72a23,23,0,0,0,3.6,5.51c1.81,2,4.72,1.18,5-1.43.35-2.81.59-5.93-.29-8.52a69.78,69.78,0,0,0-12.49-22.58c-3-3.62-6.08-7.23-9.34-10.63a69.27,69.27,0,0,0-25.28-16.41c-4.4-1.72-8.95-3.05-13.41-4.61-2.34-.82-2.92-2.14-1.66-4.26,4.28-7.16,9.5-13.35,17.59-16.5,3.58-1.4,7.13-2.9,10.62-4.5a7.19,7.19,0,0,0,4.46-6A7.71,7.71,0,0,0,275,110.5c-4.69-2.61-9.66-4.72-14.57-6.89-2.29-1-4.73-1.67-7.1-2.5-10.73-3.77-21.84-4.68-33.09-4.07-9.82.54-19.63,1.46-29.45,2-4.12.25-8.27,0-12.56,0,2.18-1.5,4.37-3.13,6.68-4.58,5.38-3.37,10.83-6.64,16.23-10,3.2-2,6.3-4.11,9.6-5.9,1.51-.81,3.4-.91,5.1-1.39a80.05,80.05,0,0,1,24.34-3c8.27.24,16.62-.88,24.78,1.35,7.77,2.12,15.53,4.23,23.28,6.44,5.67,1.62,11.24,2.07,16.51-1.15a50.23,50.23,0,0,0,4.8-3.79c0,3.4-2.21,5.7-3.53,8.35a32.93,32.93,0,0,0-2.36,5.22c-.67,2.3,1.84,5.5,4.72,6.13,6.59,1.44,11.83,5.22,16.77,9.51,2.68,2.33,5.28,4.75,7.89,7.16a17.45,17.45,0,0,1,6,14.41c-.3,5.76-.27,11.54-.49,17.32-.12,3.14,1.14,5.33,4.09,6.36,2.21.77,4.51,1.3,6.78,1.92,4.56,1.24,9.16,2.33,13.67,3.74a24.94,24.94,0,0,1,6.43,3,6.89,6.89,0,0,1,3,3.76,38.8,38.8,0,0,1,.58,9.26c-.42,8.41-1.39,16.81-1.54,25.23-.13,7.36,3.18,10.68,9.25,13.22,3,1.25,6.5,1.23,9.78,1.74a16.47,16.47,0,0,0,2.33,0l.12.79a56.51,56.51,0,0,1-7.76,2c-4.55.57-9.13.77-13.51-1.35a5,5,0,0,0-3.59,0c-3.29,1.35-5.16,5.91-4.15,9.3a26,26,0,0,0,12.31,15.38c5.35,3.11,11.09,5.54,16.53,8.5C397,250.45,401,253,405,255.53c2,1.28,1.85,2.27.34,4-4.61,5.12-9.26,10.22-13.74,15.46a18.36,18.36,0,0,0-4.36,10.5c-.36,4.37,1.69,7.94,5.31,10.36a53.84,53.84,0,0,0,7.37,4.06c1.88.88,2,2.1,1.5,3.8-.81,2.76-1.56,5.54-2.26,8.32-2,7.88,3.17,13,9.35,15.16,5,1.75,10.12,2.88,15.47,1.34a2.5,2.5,0,0,1,2.11.7c.3.34.05,1.41-.25,2-3.13,5.95-6.72,11.69-9.39,17.83s-6.4,11.8-9.73,17.63A40.57,40.57,0,0,1,392,382c-2.73,1.61-5.23,3.63-8.06,5a19.93,19.93,0,0,1-6.52,1.74,22.32,22.32,0,0,1-7.52-.07,33.5,33.5,0,0,1-8.3-3.42c-3.54-2-6.69-4.71-10.34-6.41a27.62,27.62,0,0,0-10.37-2.79c-5.89-.18-11.8.64-17.71,1-6.93.41-13.55,3-20.66,2.55a19.87,19.87,0,0,1-10.18-3.25,39.22,39.22,0,0,1-15.12-18.57c-2.43-6.35-4.73-12.77-6.56-19.31-2.16-7.68-3.6-15.56-5.65-23.27-1.6-6.06-3.52-12.05-5.55-18-2.09-6.1-5.87-11.29-9.91-16.19s-8.28-9.19-12.61-13.59c-2.47-2.51-5.27-4.71-8-7a1.62,1.62,0,0,1-.37-2.44,92.39,92.39,0,0,0,9.79-24.89c.9-4.13.59-8.53.77-12.82.07-1.61-.11-3.24,0-4.85.21-2.68-1.34-4.49-3.74-5.56-8.53-3.83-17.13-2.14-25.71-.6-5.66,1-11.28,2.32-16.83,3.85-2.2.61-4.17,2.11-6.16,3.35a2.92,2.92,0,0,1-3.67-.32c-3-2.21-4-2.24-7.23-.39a31.18,31.18,0,0,1-3.38,1.67c-1.85.79-2.59.41-2.53-1.54.11-3.32.45-6.64.66-10,.34-5.62,3-10.21,6.06-14.75a19.31,19.31,0,0,0,2.92-7.12c.94-5.21-2.11-9.36-8.05-11.72C170.31,171.87,169,171.48,167.52,171ZM344,231.41c-.79,1.25-1.12,1.89-1.57,2.45-1.72,2.21-3.55,4.32-5.21,6.57-5.07,6.88-8.2,14.41-7.08,23.14.87,6.77,3.38,13,9.23,16.81a88.94,88.94,0,0,0,15.77,8.38c4.78,1.91,9.54,3.37,12.9,7.63a3.94,3.94,0,0,0,5.37,1.05c1.51-1,2.23-3.56,1.65-5.6-1.38-4.85-5.22-7.21-9.39-9.09-5.78-2.6-11.74-4.81-17.45-7.55a14.19,14.19,0,0,1-7.52-8.1c-2.68-7.46-1-14.12,3.52-20.27,2.83-3.87,5.86-7.59,8.72-11.44,3.94-5.28.27-10.53-4.44-12.14A36.62,36.62,0,0,0,335,221.06a10.26,10.26,0,0,1-2.64-.32c-2.66-.59-3.08-1.17-2.46-3.88.47-2,1.17-4,1.76-6a37.89,37.89,0,0,1,13-19.24c4.32-3.44,7-7.58,6.33-13.35-.59-4.84-3.34-8.43-6.81-11.57-6.22-5.61-13.67-9.28-21-13.15-5.62-3-11.33-5.78-17-8.71-3.33-1.73-6.68-3.46-9.92-5.36-4.13-2.43-8.14-5.06-12.27-7.52a4.7,4.7,0,0,0-7.46,3.28c-.52,2,.57,3.57,2.07,4.8a15.55,15.55,0,0,0,2.23,1.46c6.31,3.55,12.56,7.2,18.95,10.6,8,4.27,16.21,8.24,24.23,12.51,5.68,3,11.33,6.13,15.65,11.1,2.68,3.08,2.52,5.51-.5,8.21-2.41,2.15-5.14,4.13-7,6.71A91.82,91.82,0,0,0,324,204.28a34.72,34.72,0,0,0-3.74,15.85c.09,4,1.94,7.15,5.71,8.33a72.08,72.08,0,0,0,9.72,1.95C338.24,230.83,340.8,231,344,231.41Zm29.8,110.25c2.73.07,5.06-1.78,4.67-4.33-.34-2.22-2.85-4.56-5.12-5-6.81-1.37-13.6-.62-20.28.58-7,1.26-13.82,3.23-20.75,4.77-4.06.91-8.25,1.8-12.2-.19-6-3-8.17-8.7-8.6-14.84-.77-10.77-.91-21.59-1.46-32.38a55.85,55.85,0,0,0-3.6-17.1,48.74,48.74,0,0,0-10.87-17.34c-3.56-3.57-7.26-7-12.24-8.55a5.11,5.11,0,0,0-6.74,3.35c-.76,2.41.66,4.53,3.61,5.7a21.8,21.8,0,0,1,4.49,2.35A35.63,35.63,0,0,1,294.5,270a39,39,0,0,1,5.62,16c.88,10.16,1,20.39,1.53,30.59.38,7.34.89,14.68,5.21,21,4.07,6,9.34,10.22,16.93,10.15a65,65,0,0,0,11.85-1.35c6.31-1.24,12.55-2.89,18.83-4.28S366.83,340.94,373.77,341.66Z" transform="translate(-4.67 -2.11)"/><path class="cls-3" d="M95,231.8l-5.45,7.82c-.2-2.74-.36-4.89-.54-7.38Z" transform="translate(-4.67 -2.11)"/><path class="cls-1" d="M344,231.41c-3.17-.37-5.73-.58-8.26-1a72.08,72.08,0,0,1-9.72-1.95c-3.77-1.18-5.62-4.36-5.71-8.33A34.72,34.72,0,0,1,324,204.28a91.82,91.82,0,0,1,8.17-13.62c1.85-2.58,4.58-4.56,7-6.71,3-2.7,3.18-5.13.5-8.21-4.32-5-10-8.09-15.65-11.1-8-4.27-16.2-8.24-24.23-12.51-6.39-3.4-12.64-7-18.95-10.6a15.55,15.55,0,0,1-2.23-1.46c-1.5-1.23-2.59-2.75-2.07-4.8A4.7,4.7,0,0,1,284,132c4.13,2.46,8.14,5.09,12.27,7.52,3.24,1.9,6.59,3.63,9.92,5.36,5.64,2.93,11.35,5.74,17,8.71,7.31,3.87,14.76,7.54,21,13.15,3.47,3.14,6.22,6.73,6.81,11.57.7,5.77-2,9.91-6.33,13.35a37.89,37.89,0,0,0-13,19.24c-.59,2-1.29,4-1.76,6-.62,2.71-.2,3.29,2.46,3.88a10.26,10.26,0,0,0,2.64.32,36.62,36.62,0,0,1,13.52,2.19c4.71,1.61,8.38,6.86,4.44,12.14-2.86,3.85-5.89,7.57-8.72,11.44-4.49,6.15-6.2,12.81-3.52,20.27a14.19,14.19,0,0,0,7.52,8.1c5.71,2.74,11.67,4.95,17.45,7.55,4.17,1.88,8,4.24,9.39,9.09.58,2-.14,4.63-1.65,5.6a3.94,3.94,0,0,1-5.37-1.05c-3.36-4.26-8.12-5.72-12.9-7.63a88.94,88.94,0,0,1-15.77-8.38c-5.85-3.85-8.36-10-9.23-16.81-1.12-8.73,2-16.26,7.08-23.14,1.66-2.25,3.49-4.36,5.21-6.57C342.85,233.3,343.18,232.66,344,231.41Z" transform="translate(-4.67 -2.11)"/><path class="cls-1" d="M373.77,341.66c-6.94-.72-13.15-.86-19.3.5s-12.52,3-18.83,4.28a65,65,0,0,1-11.85,1.35c-7.59.07-12.86-4.16-16.93-10.15-4.32-6.36-4.83-13.7-5.21-21-.53-10.2-.65-20.43-1.53-30.59a39,39,0,0,0-5.62-16,35.63,35.63,0,0,0-9.82-11.32,21.8,21.8,0,0,0-4.49-2.35c-2.95-1.17-4.37-3.29-3.61-5.7a5.11,5.11,0,0,1,6.74-3.35c5,1.54,8.68,5,12.24,8.55a48.74,48.74,0,0,1,10.87,17.34,55.85,55.85,0,0,1,3.6,17.1c.55,10.79.69,21.61,1.46,32.38.43,6.14,2.6,11.8,8.6,14.84,4,2,8.14,1.1,12.2.19,6.93-1.54,13.77-3.51,20.75-4.77,6.68-1.2,13.47-1.95,20.28-.58,2.27.45,4.78,2.79,5.12,5C378.83,339.88,376.5,341.73,373.77,341.66Z" transform="translate(-4.67 -2.11)"/><path class="cls-1" d="M190.12,330.72c.84-4.79,1.58-9.46,2.48-14.11,1.28-6.67,2.76-13.3,4-20,.55-3,2.64-5.68,5.64-5.27,2.68.37,4.93,3.78,4.27,6.41-1.29,5.23-2.52,10.47-3.56,15.75-1.24,6.31-2.23,12.67-3.39,19a4.7,4.7,0,0,1-3.87,4.08,4.17,4.17,0,0,1-4.71-2.15A14.37,14.37,0,0,1,190.12,330.72Z" transform="translate(-4.67 -2.11)"/><path class="cls-1" d="M212.9,223.12c4.62-.47,7,4.37,5.59,7.67-.94,2.18-2.72,2.69-4.76,2.89-5.32.52-9.39,3.21-12.63,7.29a43.17,43.17,0,0,1-2.53,3.62,4.74,4.74,0,0,1-6.26.49c-1.87-1.29-3.08-4.15-1.92-6a47.86,47.86,0,0,1,6.43-8.47c3.27-3.33,7.54-5.24,12-6.61C210.14,223.57,211.54,223.4,212.9,223.12Z" transform="translate(-4.67 -2.11)"/><path class="cls-1" d="M208.53,242.54c3.51.08,6.2,3.93,4.64,7.07a81.09,81.09,0,0,1-5.88,10c-2.07,3-4.94,2.95-7.91.26-1.76-1.58-1.45-5.33.22-7.38a22.91,22.91,0,0,0,3.31-5.57C203.91,244.52,206.24,242.48,208.53,242.54Z" transform="translate(-4.67 -2.11)"/><path class="cls-1" d="M336.31,417.43a2.18,2.18,0,0,1,.07-1.1,76.18,76.18,0,0,1,4-8c1.27-2,7.25-2.17,8.9-.4a11.49,11.49,0,0,1,3.33,9.24A4.06,4.06,0,0,1,350.1,421c-3.15,1.31-6.34,2.44-9.83,1.79C337.69,422.27,336.3,420.51,336.31,417.43Z" transform="translate(-4.67 -2.11)"/></svg>