<svg id="Layer_4" data-name="Layer 4" xmlns="http://www.w3.org/2000/svg" viewBox="0 0 389.75 403.83"><defs><style>.cls-1{fill:#fff;}.cls-2{fill:#fefefe;}.cls-3{fill:#2e2e2e;}.cls-4{fill:#fdfdfd;}.cls-5{fill:#303030;}.cls-6{fill:#f0f0f0;}</style></defs><title>Caveman Consulting Vector Logo blk</title><ellipse class="cls-1" cx="192.17" cy="200.78" rx="184.41" ry="188.66"/><path d="M245.4,456.81c-15.7-.06-31.27-1.58-46.43-5.67a260.54,260.54,0,0,1-24.85-8.59,135.79,135.79,0,0,1-16.37-7.37c-6-3.2-11.66-6.9-17.33-10.61-4.1-2.68-8.06-5.61-11.92-8.64s-8-6.36-11.62-9.88c-4.42-4.27-8.57-8.83-12.68-13.4-3.47-3.88-6.85-7.85-10-12-2.66-3.48-4.92-7.27-7.38-10.91-1-1.49-2.26-2.84-3.14-4.41a294.79,294.79,0,0,1-13.86-27.86,185.19,185.19,0,0,1-12.93-46.31A208.69,208.69,0,0,1,56.31,232a179.94,179.94,0,0,1,5.83-28.82c2-6.5,3.84-13.07,6.42-19.34,3.38-8.23,7.36-16.22,11.19-24.26a62.84,62.84,0,0,1,4.46-8c4.54-6.74,9.41-13.27,13.83-20.09,3.78-5.82,8.93-10.37,13.46-15.48,2.51-2.84,5.07-5.66,7.8-8.29,2.32-2.23,4.93-4.15,7.38-6.25,3-2.58,6-5.24,9-7.78a41.13,41.13,0,0,1,3.64-2.43C143.89,88.15,148.41,85,153,82c2-1.31,4.27-2.22,6.33-3.45a144.19,144.19,0,0,1,28.94-13.4c6.57-2.17,13.27-4,20-5.72a166.78,166.78,0,0,1,16.88-3.86,189,189,0,0,1,51.5-.67c4,.5,8,1,12.06,1.53a5.22,5.22,0,0,1,.69.11c2.46.67,4.93,1.32,7.38,2.05,4.21,1.24,8.44,2.41,12.59,3.82,6.89,2.35,13.83,4.61,20.53,7.41,4.77,2,9.21,4.77,13.75,7.29s8.86,4.86,13.1,7.58a153.82,153.82,0,0,1,12.56,9c3.75,3,7.2,6.32,10.75,9.54,3.05,2.75,6.2,5.4,9,8.34s5.35,6.21,8,9.31a86.87,86.87,0,0,1,5.86,6.75c3.9,5.56,7.56,11.28,11.3,17,1.24,1.89,2.48,3.79,3.63,5.75a186.93,186.93,0,0,1,14.87,33.22c1.7,4.85,3.48,9.7,4.75,14.66a210.72,210.72,0,0,1,5.78,72.4c-1.4,15.21-4.05,30.2-9.07,44.62-3.21,9.23-7.2,18.19-11.05,27.18A90.46,90.46,0,0,1,417,354.59c-4.35,7-9,13.79-13.6,20.68-.93,1.41-1.76,2.89-2.8,4.22s-2.39,2.71-3.59,4.06c-3.66,4.13-7.25,8.31-11,12.37-2.13,2.3-4.43,4.47-6.77,6.57q-6.48,5.81-13.11,11.45a143.35,143.35,0,0,1-26.22,17.51c-3.39,1.79-6.52,4.1-10,5.73-9.41,4.45-19.27,7.75-29.12,11.12a132,132,0,0,1-27.29,6.4c-9.33,1.09-18.71,1.74-28.07,2.59Zm-75-227.1h6.89c.19-4.1.14-7.7.57-11.24.46-3.75,1.08-7.54,3.19-10.84,1.1-1.72,2.25-3.39,3.33-5.11s.77-2.28-.89-2.9a28.05,28.05,0,0,0-3.34-1,5.93,5.93,0,0,1-4.58-5.7,20.35,20.35,0,0,1,3-11.22c1.19-2.1,2.16-4.33,3.41-6.87a34.15,34.15,0,0,0-4.43.58c-3.39.9-6.75,1.92-10.1,2.95-7,2.17-13.9,4.7-19.93,9.08-1.51,1.1-4.74.78-6.42-.67-1.24,3.62-2.29,7.21-3.68,10.65-2.48,6.09-5.18,12.09-7.76,18.14-.45,1.06-1.1,2.17,0,3.23,2.57,2.48,5.25,4.86,7.66,7.47,1.29,1.4,2.82,2.9,2.44,5.18a8,8,0,0,0,2,.36c4-.3,8-.72,12-1,3-.21,6-.26,9-.44C165.28,230.16,167.84,229.92,170.4,229.71ZM300.57,124.13a24.07,24.07,0,0,1,2.77,1.16c2.62,1.57,5.36,2.85,7.55,5.21,2.84,3,6.26,5.54,9.3,8.41a21.17,21.17,0,0,1,4.09,4.79,23.18,23.18,0,0,1,2.83,12.3c-.1,3.76,0,7.53-.16,11.29,0,1.23.37,1.62,1.57,1.71a25.69,25.69,0,0,1,4.33.77c3,.75,5.94,1.58,8.89,2.45a7.67,7.67,0,0,1,1.58,1c2.3,1.42,4.72,2.67,6.88,4.28,3.07,2.28,4,5.83,3.95,9.35,0,5.32-.58,10.64-.9,16-.18,3.22-.44,6.45-.46,9.68,0,3,1.34,4.56,4.25,5,4.27.61,8.52,1.14,12.48-1.47,1.55-1,2.91.17,4.27,1,2.35,1.47,3,3.33,1.73,5.71a33.17,33.17,0,0,1-2.45,4,20.14,20.14,0,0,1-8.24,6.73,30.11,30.11,0,0,1-14.14,2.23,22.23,22.23,0,0,0-2.37.1,22.09,22.09,0,0,0,9,7c1.64.75,3.34,1.38,4.93,2.23,3.11,1.65,6.21,3.33,9.21,5.17a40.92,40.92,0,0,1,6,4.4c3.51,3.18,4.33,8.87.92,12.6-2.56,2.8-5,5.71-7.44,8.59-1.65,1.94-3.36,3.84-4.81,5.92-1.64,2.36-1,4.1,1.68,5.3a5.23,5.23,0,0,1,.79.38c2.06,1.37,4.38,2.49,6.09,4.21,2.49,2.51,2.42,5.79,1.53,9.06-.57,2.09-1.14,4.17-1.59,6.28s.51,3.37,2.53,3.9a20.26,20.26,0,0,0,16.18-2.52c1.5-.9,3-1.28,4.41-.13a4,4,0,0,1,1.59,4.65c-1.36,3.91-2.8,7.79-4.25,11.66-.69,1.86-1.47,3.69-2.23,5.52-.95,2.32-1.82,4.68-2.9,6.94-1.41,2.94-3,5.81-4.48,8.68-2.15,4.05-4.06,8.24-7.14,11.72-1.1,1.25-2.23,2.49-3.35,3.73-1.57,1.73-3.07,3.54-4.74,5.17s-3.36,2.93-5.07,4.4l7.27,9.43c3.29-3.64,6.39-6.81,9.18-10.24,2.65-3.26,5.1-6.71,7.43-10.21,3.72-5.6,7.61-11.12,10.81-17,3.74-6.9,7-14.08,10.11-21.3a168.07,168.07,0,0,0,6.24-17.34,172.7,172.7,0,0,0,6.38-32.28c2.66-25.78.8-51.12-7.46-75.83-1.52-4.56-2.92-9.19-4.77-13.62-3.8-9.07-7.71-18.1-13.29-26.29-2.87-4.21-5.35-8.71-8.43-12.76-4-5.25-8.37-10.21-12.67-15.22a60.22,60.22,0,0,0-5.11-5.12c-2.6-2.36-5.33-4.58-8-6.9-2.41-2.11-4.62-4.48-7.2-6.37C351,106,346.06,102.57,341,99.43a145.82,145.82,0,0,0-14.13-7.76c-5.76-2.74-11.68-5.14-17.61-7.48-10.21-4-21-6-31.72-7.79a147.8,147.8,0,0,0-54.14,1c-10.8,2.25-21.57,4.47-31.78,8.91C185.44,89,179,91.17,173.27,94.75c-3.62,2.25-7.44,4.17-11.06,6.41-6,3.73-12.22,7.19-17.47,12.07-2.82,2.62-5.86,5-8.85,7.44-5.14,4.16-9.22,9.33-13.64,14.16-1.1,1.21-2.42,2.23-3.41,3.52-3.22,4.17-6.39,8.38-9.47,12.66-2.55,3.56-5.11,7.13-7.37,10.88a164.89,164.89,0,0,0-12.34,24.69c-2.18,5.48-4.34,11-6.17,16.59a173.13,173.13,0,0,0-8.12,43.37c-1.62,26.34,1.27,52.08,11.15,76.74,3.34,8.32,6.94,16.56,11,24.57A102.37,102.37,0,0,0,107,363c4.79,6.49,10,12.71,15.21,18.84a100.66,100.66,0,0,0,10,10.09c7.75,6.82,15.69,13.4,24.72,18.51,5.94,3.37,11.86,6.79,17.91,9.95a101.83,101.83,0,0,0,9.75,4.09c4,1.55,4,1.51,5.95-2.29.33-.62.81-1.16,1.09-1.8,2-4.53,3.77-9.17,6-13.57,1.68-3.29,1.08-6.57.93-9.9a1.89,1.89,0,0,0-.61-1.25c-3.18-2.66-4.1-6.69-6-10.11-1.7-3.1-2.71-6.55-4.14-9.8a9.63,9.63,0,0,0-2-2.85,4.78,4.78,0,0,1-1.39-4.17c.41-3.32.7-6.68,1.43-9.93a6.33,6.33,0,0,0-1.78-6c-1.85-2.13-3.62-4.33-5.49-6.44A3.76,3.76,0,0,0,175.3,345c-5.9.61-11.82,1-17.72,1.64-6.64.71-13.27,1.58-20,1.06-2.9-.22-5.41-1.17-6.61-4.06a17.06,17.06,0,0,1-1.38-4.69,36.47,36.47,0,0,1-.11-7.31,25.15,25.15,0,0,1,1.51-6.12c.82-2.22,1.12-4.17,0-6.48-1.29-2.65-2-5.59-3-8.36-1.26-3.26-3-6.38-3.87-9.73a19.33,19.33,0,0,1-.06-8c.58-3.13,2-6.1,2.89-9.19.67-2.29,1.08-4.66,1.71-7.48-2.56.41-4.86.68-7.13,1.16-5.36,1.12-10.29-1.26-12.27-6.26a4.42,4.42,0,0,1,.46-4c1.17-2.07,2.39-4.12,3.57-6.19,1.29-2.26,2.55-4.53,3.9-6.94-2.56-.5-3-2.48-3.36-4.47a14.6,14.6,0,0,1-.26-1.74q-1-16.53-2.07-33.07a6.15,6.15,0,0,1,.29-2.25c1-3.09,4.56-3.95,6.59-1.44,1,1.25,1.36,3,2,4.54,7.17-13,11.39-27.54,16.7-41.83a10.53,10.53,0,0,0-1.19-.14c-6,.23-11.75,1-16.88,4.5-4.43,3-8.7,6.16-12,10.49a6.92,6.92,0,0,1-3.39,2.49c-3.47.88-5.63-2.63-5-5.51A47.9,47.9,0,0,1,104.47,171a47.23,47.23,0,0,1,14-15.56,48.53,48.53,0,0,1,8-4.38,45.86,45.86,0,0,1,13.65-3.16,1.68,1.68,0,0,0,1.12-.65c.67-1,1.16-2.15,1.83-3.16a61.42,61.42,0,0,1,5.39-7.68,115.44,115.44,0,0,1,10.79-10.31,88,88,0,0,1,9.78-6.58c2.41-1.51,5-2.81,7.46-4.19a56.7,56.7,0,0,1,5.61-3.08c3.82-1.6,7.73-3,11.6-4.45a31.88,31.88,0,0,1,13.89-2.58,9.14,9.14,0,0,1,5.53,2.23c1.48,1.55,2.55,1.19,4.12.79,4.43-1.12,8.85-2.32,13.34-3.07a57.78,57.78,0,0,1,9.85-.55c6,0,12.2-.36,18.11.61,7.36,1.21,14.55,3.5,21.74,5.57,3.32,1,6.38,1.59,9.65-.21a7.39,7.39,0,0,0,4-4.84,41.53,41.53,0,0,0,.58-4.37,14.9,14.9,0,0,1,8.17,7.23C305.36,114,303.53,119.11,300.57,124.13ZM362.66,225.8l-8.45-1.38c-3.77-.63-8.07-4.46-8.53-8.34-.88-7.49.22-14.87.78-22.3a61,61,0,0,0-.1-8.22,4,4,0,0,0-2.73-3.59,48.46,48.46,0,0,0-4.66-2.12c-3.93-1.15-7.93-2-11.87-3.15a24.23,24.23,0,0,1-5.91-2.14c-2.3-1.37-1.95-3.92-1.9-6.23.12-4.64.32-9.28.27-13.91a11.2,11.2,0,0,0-1.7-6.52c-2.65-3.91-6.17-6.9-9.65-10-3.81-3.35-8-6.1-13.06-7.26a4.73,4.73,0,0,1-3.08-6.41c1-2.16,2.3-4.2,3.34-6.35a20.93,20.93,0,0,0,1-3.26c-4.36,4.83-8.61,5.71-14.58,4.64-4.3-.78-8.45-2.39-12.68-3.6-3.36-1-6.73-2-10.13-2.81a19.61,19.61,0,0,0-5-.68c-9.83.19-19.76-1-29.41,1.78a42.77,42.77,0,0,0-9,3.28c-5.15,2.88-10,6.23-15,9.45-2.9,1.89-5.71,3.89-8.57,5.86,3.48,0,6.77.16,10,0,7.79-.46,15.57-1.19,23.36-1.62,8.92-.49,17.72.23,26.24,3.22,1.87.66,3.81,1.18,5.63,2,3.9,1.72,7.84,3.39,11.56,5.45a6.53,6.53,0,0,1,3.43,6.34c-.22,2.55-1.93,4.11-4.33,5.06a91.41,91.41,0,0,0-9.5,4.17c-5.27,2.8-8.92,7.31-12,12.33-1.12,1.85-.58,3.24,1.51,4,3.48,1.24,7,2.26,10.47,3.61a52.87,52.87,0,0,1,19.9,13.18c4.23,4.56,8.5,9.08,11.49,14.58,2,3.75,3.93,7.6,5.59,11.53a11.79,11.79,0,0,1,.54,7.95,2.32,2.32,0,0,1-3.9,1.19,5.41,5.41,0,0,1-1.46-1.74c-1.86-4-3.38-8.12-5.51-11.93a85.4,85.4,0,0,0-7.7-11.5,50,50,0,0,0-8.11-8,67,67,0,0,0-10.57-6.85c-3.09-1.61-6.59-2.41-9.85-3.71a33.2,33.2,0,0,1-7.12-3.36,8.45,8.45,0,0,1-3.12-4.63,9.23,9.23,0,0,1,1.24-7.61c1.36-1.9,2.6-3.88,3.92-5.8A31.58,31.58,0,0,1,259,148.61c1.17-.44,2.25-1.11,3.59-1.78a14,14,0,0,0-1.75-1c-3.84-1.55-7.67-3.15-11.56-4.58A49.63,49.63,0,0,0,232,138.34c-5.28,0-10.56.38-15.83.71-10.31.63-20.61,1.38-30.92,2a15.31,15.31,0,0,1-5.06-.39c-4.32-1.26-4.68-5.25-2-7.71a38.16,38.16,0,0,1,5.34-4.25c5.83-3.73,11.75-7.3,17.61-11,1.79-1.13,3.48-2.43,5.21-3.65a7.66,7.66,0,0,0-2.77-.36,18.54,18.54,0,0,0-7.35,2.1c-3.59,1.58-7.44,2.58-11,4.28-8.23,4-16.39,8.09-23.13,14.44-2.72,2.56-5.55,5.05-8,7.82-3.15,3.51-5,7.85-6.88,12.1a4.1,4.1,0,0,1-5.4,2.27,7,7,0,0,0-2.57-.41,26.43,26.43,0,0,0-10.83,3.25c-3.95,2.21-8,4.22-11,7.71-.86,1-1.71,2-2.57,3a1.2,1.2,0,0,0,1-.13,28.36,28.36,0,0,1,15.44-4.68c4,0,8.08.17,12.11.36,3.76.17,5.55,2.56,4.85,6.31-.32,1.75-.67,3.5-1.07,5.55,2.47-1.12,4.62-2,6.7-3.06a86.28,86.28,0,0,1,24.33-8c3.29-.54,6.57-1.24,10-.48s4.59,2.54,3.93,5.82a6,6,0,0,1-.41,1.52c-1.45,3-3,5.84-4.41,8.8-1.32,2.78-2.52,5.61-3.83,8.54,1.35.48,2.35.79,3.33,1.17,4.67,1.84,7,4.8,6.45,9.09a14.59,14.59,0,0,1-2.22,6c-2.44,3.72-4.67,7.42-4.88,12-.13,2.76-.41,5.5-.57,8.25-.08,1.34.66,1.68,1.8,1.18a33.38,33.38,0,0,0,3-1.48c2.39-1.37,3.35-1.34,5.59.35a2.42,2.42,0,0,0,3,.22,23.36,23.36,0,0,1,6.05-3.08,158.79,158.79,0,0,1,16.54-3.34c5.37-.74,10.84-1.3,16.05,1.27a4.55,4.55,0,0,1,2.88,3.81c0,2,.07,4,0,6-.09,4.64-.22,9.3-1.95,13.7-2,5.11-4,10.24-6.25,15.25-.56,1.27-.7,2,.4,2.78.46.34.83.83,1.29,1.19a70.92,70.92,0,0,1,13.27,13.15c3.24,4.23,6.59,8.43,8.6,13.42a101.39,101.39,0,0,1,4,11.46c1.59,5.93,2.8,12,4.25,18,1,4.16,2,8.34,3.27,12.42a70.38,70.38,0,0,0,4.38,11.66,49.85,49.85,0,0,0,6.39,8.73c2.5,3,5.77,5.34,9.54,5.9a35,35,0,0,0,11.37-.37c7.3-1.37,14.61-2.53,22-2.11a22.14,22.14,0,0,1,8.22,2.24c3,1.45,5.45,3.82,8.33,5.48a24.2,24.2,0,0,0,6.59,2.67,18.1,18.1,0,0,0,6,.06,12.14,12.14,0,0,0,5-1.35c3.71-2.3,7.27-4.86,10.77-7.49a17.25,17.25,0,0,0,3.85-4c2-3,3.92-6.09,5.7-9.25,2.47-4.37,4.83-8.81,7.18-13.26q2.9-5.52,5.63-11.13c.28-.56.52-1.5.25-1.88a2.13,2.13,0,0,0-1.86-.43c-5.55,1.48-10.42-.38-15.11-3a9,9,0,0,1-4.43-9.74c.52-2.52,1.16-5,1.86-7.49.42-1.49.4-2.54-1.25-3.29a51.54,51.54,0,0,1-5.7-3.11,9.92,9.92,0,0,1-4-10c1.32-5.79,5.25-9.94,8.89-14.26,1.49-1.78,3.28-3.3,4.88-5s1.73-2.78-.31-4.05q-6.18-3.84-12.67-7.17c-4.35-2.24-9-3.88-12.6-7.46-3-3-5.74-6.18-6.89-10.42-.74-2.74.67-6.34,3.28-7.46a4.27,4.27,0,0,1,3-.06C351.39,228.88,356.91,228.16,362.66,225.8ZM206.46,395.51c.56-1.05,1-1.75,1.31-2.5a20.38,20.38,0,0,0,.64-2.19c1.05-3.7,3.53-5.16,6.28-3.81,5.42,2.67,10.91.39,13.38-4.87,1.69-3.59,1.72-7.37,2.33-11.11a21.06,21.06,0,0,1,1-4.26,3.37,3.37,0,0,1,5.39-1.31c.84.71,1.53,1.6,2.41,2.23,3.82,2.72,7.28,5.74,9.33,10.09,1.37,2.92,2.61,5.88,2.66,9.18,0,1.05,0,2.09,0,3.32a6.32,6.32,0,0,0,1.76-.18,20.93,20.93,0,0,0,4.26-2.27c2.4-1.93,4.73-4.06,4.83-7.49a6.3,6.3,0,0,1,3.75-5.94c1.42-.68,2.84-1.34,4.3-1.92,3.95-1.57,7.93-3.09,11.89-4.64.49-.2.95-.48,1.5-.76-2.09-1.18-4.15-2-5.74-3.33a78.84,78.84,0,0,1-7.09-7.07A32.44,32.44,0,0,1,263.09,344c-1.43-4.88-3.33-9.63-4.66-14.54-1.74-6.44-3.09-13-4.67-19.48a111.45,111.45,0,0,0-3-11.18,52.53,52.53,0,0,0-9-15.39,64.6,64.6,0,0,0-14-13,3.6,3.6,0,0,0-.34.52c-1.12,2.31-2.16,4.66-3.38,6.91a4.86,4.86,0,0,1-2,1.84,12.12,12.12,0,0,1-3.76,1.39,12.61,12.61,0,0,1-5.12,0c-1.68-.5-2.09-2.32-1.85-4s.72-3.19,2.74-3.64c2.36-.54,4.39-1.46,5-4.24a17.62,17.62,0,0,1,1.71-3.83c2.47-5,5-10,7.44-15a40.55,40.55,0,0,0,4.22-19.19c0-1.72-.63-2.39-2.24-2.23-5,.49-9.93.92-14.87,1.56a34.37,34.37,0,0,0-5.73,1.52c-1.1.35-2.65.58-3.13,1.39a69.84,69.84,0,0,0-4.48,9c-.87,2.09-1.29,4.34-4.22,4.3a5.94,5.94,0,0,1-2.35,5.54,35.81,35.81,0,0,0-5.36,6.55c-1.2,1.7-3.34,2.73-4.94,1.93a5,5,0,0,1-2.6-4.91c.06-.51.12-1,.15-1.24-1.29-.72-2.69-1.08-3.38-2-1.65-2.18-1.16-4.34.92-6.34a27,27,0,0,0,2-2.33c-1.34-.44-3.19-.52-4.09-1.48s-1-2.89-1.53-4.56c-.2,0-.71,0-1.23,0-5.69.31-11.38.67-17.08.93-6.69.3-13.39.57-20.09.73a3.56,3.56,0,0,0-3.24,1.89c-1.34,2.16-2.66,4.34-4.06,6.46-2.26,3.41-4.65,6.73-6.87,10.17-1.84,2.85-3.58,5.77-5.22,8.73-.92,1.66-.2,3,1.64,3.44a6.51,6.51,0,0,0,1.92.09c3.46-.28,6.9-.66,10.36-.86,3.69-.22,5,.83,4.45,4.45-.72,4.9-1.95,9.74-3.09,14.58-.65,2.78-1.58,5.5-2.34,8.26a2.26,2.26,0,0,0,.07,1.36c1.62,4.18,3.31,8.34,4.92,12.53,1.32,3.42,2.62,6.86,3.79,10.34a4.56,4.56,0,0,1-.17,2.57c-.69,2.42-1.66,4.76-2.22,7.2-.6,2.68-1.55,5.44.14,8.17,3.3,0,6.66.19,10,0,8.14-.57,16.27-1.39,24.41-2,5.91-.46,11.84-.73,17.76-1.17,2.53-.19,4.74,1.22,5,3.38.28,2.79-1.43,4.71-4.32,4.83-.91,0-1.83,0-3.17,0,1.14,1.61,2,2.89,2.89,4.06,2.49,3.12,4.24,6.37,3.24,10.63a76.13,76.13,0,0,0-1.06,8,2.5,2.5,0,0,0,0,1.22c1.59,3.67,3.16,7.37,4.88,11,1.43,3,3.06,5.9,4.59,8.86C203.8,390.22,205.06,392.75,206.46,395.51Zm57.8,18.4c-2.66-3.15-2.82-3.73-1.85-7.8.29-1.2.79-2.34,1.07-3.53a3.32,3.32,0,0,1,3.26-2.71,8.45,8.45,0,0,0,4.26-1.48,3.59,3.59,0,0,1,5.23,3c.06,1.74,0,3.49,0,5.2a51.82,51.82,0,0,1,6.86-.44,19.91,19.91,0,0,0,11.44-3.08,5.16,5.16,0,0,1,1.83-.53c3.2-.53,5.72,1.4,8.44,2.48,2.46,1,4.69,2.78,7.21,3.28,5.74,1.14,11.59,2.2,17.39.17a4.61,4.61,0,0,0,2.41-1.47c.87-1.49,1.18-3.31,2-4.81,1.85-3.24,2.55-7,5.51-9.76,2.53-2.34,3.48-3,5.72-2.29,1.92.63,3.91,1,5.86,1.52a33.62,33.62,0,0,1,5.72,1.51,1.86,1.86,0,0,0,2.44-.27c2.46-2.23,4.95-4.43,7.42-6.66a7.4,7.4,0,0,0,.76-.94c-1.85-2.08-3.12-4.83-6.66-4.1.12,3.36-2.5,4.28-5.07,5.22-3.05,1.11-5,.42-6.6-2.35a7.43,7.43,0,0,1-1.17-5.19c.18-.95.25-2-1.09-2.39-3.2-1-6.37-2.13-9.59-3.1a23.92,23.92,0,0,0-3.2-.41c-.67-.1-1.54-.08-1.93-.49-2-2.1-4.19-4.11-5.66-6.55-2.28-3.77-5.24-3.81-8.74-2.57-1.73.61-3.46,1.2-5.15,1.78.29,1.43.62,3.13,1,4.83A21.26,21.26,0,0,1,312,383.54a4.37,4.37,0,0,1-3.72,2.83c-3,.19-6.08.57-9.12.77-3.54.24-8.18-1.14-8.61-6-.26-2.83-2.68-4.21-3.63-6.51-.09-.22-.75-.4-1.06-.3-1.38.44-2.75.94-4.09,1.51-2.51,1.05-5,2.08-7.47,3.26s-5.64,1.43-5.29,5.33c0,.4-.33.87-.56,1.28a25.25,25.25,0,0,1-7.18,8.75c-2.35,1.68-4.8,3.19-7.71,3.59-3.17.44-6-.24-8.25-2.79-1.58-1.8-1.58-4-1.54-6.15.09-5.38-2.44-9.5-6.34-13.22-.58,4.37-1.57,8.37-4,11.87-1.76,2.51-3.4,5.12-6.43,6.42-.46.2-.81,1.19-.83,1.83-.15,5.13-5,9.5-10.06,8.78-1.61-.23-3.11-1.2-4.76-1.86a4.86,4.86,0,0,0-.4.67,39.52,39.52,0,0,1-2,4.39c-1.12,1.82-2.61,3.41-3.7,5.25a42.06,42.06,0,0,0-2.92,6.09c-.37.93-.06,2.11-.3,3.13-.57,2.44-2.45,3.16-4.68,3.07-.43,3-.45,3.13,2.26,3.75,8,1.83,16.11,3.58,24.17,5.33a3.75,3.75,0,0,0,1.23-.12,10.3,10.3,0,0,0-3.77-2.23c-2.66-.72-5.39-1.15-8.09-1.71-3.42-.71-4.9-3.18-3.7-6.5,1.35-3.72,2.73-7.43,4.36-11,1.4-3.12,3.82-4.31,7.12-3.52a29.28,29.28,0,0,1,9.36,3.77,5.91,5.91,0,0,0,5,1.13c1.55-.43,2.85.48,3.66,1.85,1.27,2.12.44,4.24-2.38,6,.27,1.12.56,2.29.84,3.47l.46.1a55.15,55.15,0,0,1,2.7-5.38c.73-1.15,1.83-2.78,2.89-2.88a103.45,103.45,0,0,1,14.4-.54C260.75,417.07,262.75,416.27,264.26,413.91Zm57.89,3.58-.15-.39c-1.81-.16-3.63-.27-5.43-.49A41.18,41.18,0,0,1,303.42,413c-2.95-1.42-5.78-3.91-9.23-1.09,0,0-.11,0-.16.05a32.73,32.73,0,0,1-11.43,1.61,13,13,0,0,0-7,1.32c-3.24,1.8-5.63,4.49-8.29,6.93a10.05,10.05,0,0,1-7.07,3c-4.21,0-8.43.12-12.65.28a2.18,2.18,0,0,0-1.47.9c-1.53,2.33-2.93,4.75-4.44,7.1-.58.9-1.33,1.7-2.31,2.92h2.55a135.66,135.66,0,0,0,37.81-4.09c8.28-2.18,16.54-4.48,24.78-6.84a60.18,60.18,0,0,0,7.76-2.86C315.62,420.77,318.87,419.08,322.15,417.49ZM120,221c.3,3.66.6,7.32.91,11.15l10.15-.46C128.06,227.26,123.61,224.67,120,221Zm1.73,25.7c1.52-2.31,2.77-4.22,4.24-6.44l-4.62.28Z" transform="translate(-54.48 -53.46)"/><path class="cls-2" d="M300.57,124.13c3-5,4.79-10.15,2-15.49a14.9,14.9,0,0,0-8.17-7.23,41.53,41.53,0,0,1-.58,4.37,7.39,7.39,0,0,1-4,4.84c-3.27,1.8-6.33,1.17-9.65.21-7.19-2.07-14.38-4.36-21.74-5.57-5.91-1-12.06-.57-18.11-.61a57.78,57.78,0,0,0-9.85.55c-4.49.75-8.91,2-13.34,3.07-1.57.4-2.64.76-4.12-.79a9.14,9.14,0,0,0-5.53-2.23,31.88,31.88,0,0,0-13.89,2.58c-3.87,1.49-7.78,2.85-11.6,4.45a56.7,56.7,0,0,0-5.61,3.08c-2.49,1.38-5,2.68-7.46,4.19a88,88,0,0,0-9.78,6.58,115.44,115.44,0,0,0-10.79,10.31,61.42,61.42,0,0,0-5.39,7.68c-.67,1-1.16,2.15-1.83,3.16a1.68,1.68,0,0,1-1.12.65,45.86,45.86,0,0,0-13.65,3.16,48.53,48.53,0,0,0-8,4.38,47.23,47.23,0,0,0-14,15.56,47.9,47.9,0,0,0-5.88,14.55c-.6,2.88,1.56,6.39,5,5.51A6.92,6.92,0,0,0,107,188.6c3.3-4.33,7.57-7.46,12-10.49,5.13-3.51,10.92-4.27,16.88-4.5a10.53,10.53,0,0,1,1.19.14c-5.31,14.29-9.53,28.8-16.7,41.83-.63-1.5-1-3.29-2-4.54-2-2.51-5.57-1.65-6.59,1.44a6.15,6.15,0,0,0-.29,2.25q1,16.53,2.07,33.07a14.6,14.6,0,0,0,.26,1.74c.4,2,.8,4,3.36,4.47-1.35,2.41-2.61,4.68-3.9,6.94-1.18,2.07-2.4,4.12-3.57,6.19a4.42,4.42,0,0,0-.46,4c2,5,6.91,7.38,12.27,6.26,2.27-.48,4.57-.75,7.13-1.16-.63,2.82-1,5.19-1.71,7.48-.89,3.09-2.31,6.06-2.89,9.19a19.33,19.33,0,0,0,.06,8c.84,3.35,2.61,6.47,3.87,9.73,1.07,2.77,1.73,5.71,3,8.36,1.12,2.31.82,4.26,0,6.48a25.15,25.15,0,0,0-1.51,6.12,36.47,36.47,0,0,0,.11,7.31,17.06,17.06,0,0,0,1.38,4.69c1.2,2.89,3.71,3.84,6.61,4.06,6.7.52,13.33-.35,20-1.06,5.9-.64,11.82-1,17.72-1.64a3.76,3.76,0,0,1,3.39,1.38c1.87,2.11,3.64,4.31,5.49,6.44a6.33,6.33,0,0,1,1.78,6c-.73,3.25-1,6.61-1.43,9.93a4.78,4.78,0,0,0,1.39,4.17,9.63,9.63,0,0,1,2,2.85c1.43,3.25,2.44,6.7,4.14,9.8,1.87,3.42,2.79,7.45,6,10.11a1.89,1.89,0,0,1,.61,1.25c.15,3.33.75,6.61-.93,9.9-2.25,4.4-4,9-6,13.57-.28.64-.76,1.18-1.09,1.8-2,3.8-2,3.84-5.95,2.29a101.83,101.83,0,0,1-9.75-4.09c-6.05-3.16-12-6.58-17.91-9.95-9-5.11-17-11.69-24.72-18.51a100.66,100.66,0,0,1-10-10.09c-5.26-6.13-10.42-12.35-15.21-18.84a102.37,102.37,0,0,1-9.51-15.12c-4-8-7.62-16.25-11-24.57-9.88-24.66-12.77-50.4-11.15-76.74a173.13,173.13,0,0,1,8.12-43.37c1.83-5.6,4-11.11,6.17-16.59A164.89,164.89,0,0,1,102,161.89c2.26-3.75,4.82-7.32,7.37-10.88,3.08-4.28,6.25-8.49,9.47-12.66,1-1.29,2.31-2.31,3.41-3.52,4.42-4.83,8.5-10,13.64-14.16,3-2.42,6-4.82,8.85-7.44,5.25-4.88,11.45-8.34,17.47-12.07,3.62-2.24,7.44-4.16,11.06-6.41,5.77-3.58,12.17-5.71,18.35-8.39,10.21-4.44,21-6.66,31.78-8.91a147.8,147.8,0,0,1,54.14-1c10.71,1.74,21.51,3.75,31.72,7.79,5.93,2.34,11.85,4.74,17.61,7.48A145.82,145.82,0,0,1,341,99.43c5.06,3.14,10,6.56,14.78,10.08,2.58,1.89,4.79,4.26,7.2,6.37,2.64,2.32,5.37,4.54,8,6.9a60.22,60.22,0,0,1,5.11,5.12c4.3,5,8.67,10,12.67,15.22,3.08,4,5.56,8.55,8.43,12.76,5.58,8.19,9.49,17.22,13.29,26.29,1.85,4.43,3.25,9.06,4.77,13.62,8.26,24.71,10.12,50.05,7.46,75.83a172.7,172.7,0,0,1-6.38,32.28,168.07,168.07,0,0,1-6.24,17.34c-3.09,7.22-6.37,14.4-10.11,21.3-3.2,5.89-7.09,11.41-10.81,17-2.33,3.5-4.78,6.95-7.43,10.21-2.79,3.43-5.89,6.6-9.18,10.24l-7.27-9.43c1.71-1.47,3.48-2.84,5.07-4.4s3.17-3.44,4.74-5.17c1.12-1.24,2.25-2.48,3.35-3.73,3.08-3.48,5-7.67,7.14-11.72,1.52-2.87,3.07-5.74,4.48-8.68,1.08-2.26,1.95-4.62,2.9-6.94.76-1.83,1.54-3.66,2.23-5.52,1.45-3.87,2.89-7.75,4.25-11.66a4,4,0,0,0-1.59-4.65c-1.42-1.15-2.91-.77-4.41.13a20.26,20.26,0,0,1-16.18,2.52c-2-.53-3-1.86-2.53-3.9s1-4.19,1.59-6.28c.89-3.27,1-6.55-1.53-9.06-1.71-1.72-4-2.84-6.09-4.21a5.23,5.23,0,0,0-.79-.38c-2.67-1.2-3.32-2.94-1.68-5.3,1.45-2.08,3.16-4,4.81-5.92,2.45-2.88,4.88-5.79,7.44-8.59,3.41-3.73,2.59-9.42-.92-12.6a40.92,40.92,0,0,0-6-4.4c-3-1.84-6.1-3.52-9.21-5.17-1.59-.85-3.29-1.48-4.93-2.23a22.09,22.09,0,0,1-9-7,22.23,22.23,0,0,1,2.37-.1,30.11,30.11,0,0,0,14.14-2.23,20.14,20.14,0,0,0,8.24-6.73,33.17,33.17,0,0,0,2.45-4c1.29-2.38.62-4.24-1.73-5.71-1.36-.85-2.72-2-4.27-1-4,2.61-8.21,2.08-12.48,1.47-2.91-.41-4.27-2-4.25-5,0-3.23.28-6.46.46-9.68.32-5.32.9-10.64.9-16,0-3.52-.88-7.07-3.95-9.35-2.16-1.61-4.58-2.86-6.88-4.28a7.67,7.67,0,0,0-1.58-1c-2.95-.87-5.91-1.7-8.89-2.45a25.69,25.69,0,0,0-4.33-.77c-1.2-.09-1.61-.48-1.57-1.71.12-3.76.06-7.53.16-11.29a23.18,23.18,0,0,0-2.83-12.3,21.17,21.17,0,0,0-4.09-4.79c-3-2.87-6.46-5.37-9.3-8.41-2.19-2.36-4.93-3.64-7.55-5.21A24.07,24.07,0,0,0,300.57,124.13Z" transform="translate(-54.48 -53.46)"/><path class="cls-3" d="M362.66,225.8c-5.75,2.36-11.27,3.08-17,.81a4.27,4.27,0,0,0-3,.06c-2.61,1.12-4,4.72-3.28,7.46,1.15,4.24,3.85,7.39,6.89,10.42,3.6,3.58,8.25,5.22,12.6,7.46s8.55,4.61,12.67,7.17c2,1.27,2,2.28.31,4.05s-3.39,3.22-4.88,5c-3.64,4.32-7.57,8.47-8.89,14.26a9.92,9.92,0,0,0,4,10,51.54,51.54,0,0,0,5.7,3.11c1.65.75,1.67,1.8,1.25,3.29-.7,2.47-1.34,5-1.86,7.49a9,9,0,0,0,4.43,9.74c4.69,2.62,9.56,4.48,15.11,3a2.13,2.13,0,0,1,1.86.43c.27.38,0,1.32-.25,1.88q-2.74,5.61-5.63,11.13c-2.35,4.45-4.71,8.89-7.18,13.26-1.78,3.16-3.66,6.27-5.7,9.25a17.25,17.25,0,0,1-3.85,4c-3.5,2.63-7.06,5.19-10.77,7.49a12.14,12.14,0,0,1-5,1.35,18.1,18.1,0,0,1-6-.06,24.2,24.2,0,0,1-6.59-2.67c-2.88-1.66-5.37-4-8.33-5.48a22.14,22.14,0,0,0-8.22-2.24c-7.42-.42-14.73.74-22,2.11a35,35,0,0,1-11.37.37c-3.77-.56-7-2.92-9.54-5.9a49.85,49.85,0,0,1-6.39-8.73,70.38,70.38,0,0,1-4.38-11.66c-1.28-4.08-2.26-8.26-3.27-12.42-1.45-6-2.66-12-4.25-18a101.39,101.39,0,0,0-4-11.46c-2-5-5.36-9.19-8.6-13.42a70.92,70.92,0,0,0-13.27-13.15c-.46-.36-.83-.85-1.29-1.19-1.1-.82-1-1.51-.4-2.78,2.23-5,4.24-10.14,6.25-15.25,1.73-4.4,1.86-9.06,1.95-13.7,0-2,0-4,0-6a4.55,4.55,0,0,0-2.88-3.81c-5.21-2.57-10.68-2-16.05-1.27a158.79,158.79,0,0,0-16.54,3.34,23.36,23.36,0,0,0-6.05,3.08,2.42,2.42,0,0,1-3-.22c-2.24-1.69-3.2-1.72-5.59-.35a33.38,33.38,0,0,1-3,1.48c-1.14.5-1.88.16-1.8-1.18.16-2.75.44-5.49.57-8.25.21-4.6,2.44-8.3,4.88-12a14.59,14.59,0,0,0,2.22-6c.52-4.29-1.78-7.25-6.45-9.09-1-.38-2-.69-3.33-1.17,1.31-2.93,2.51-5.76,3.83-8.54,1.41-3,3-5.85,4.41-8.8a6,6,0,0,0,.41-1.52c.66-3.28-.62-5.08-3.93-5.82s-6.67-.06-10,.48a86.28,86.28,0,0,0-24.33,8c-2.08,1-4.23,1.94-6.7,3.06.4-2,.75-3.8,1.07-5.55.7-3.75-1.09-6.14-4.85-6.31-4-.19-8.07-.41-12.11-.36a28.36,28.36,0,0,0-15.44,4.68,1.2,1.2,0,0,1-1,.13c.86-1,1.71-2,2.57-3,3-3.49,7.05-5.5,11-7.71a26.43,26.43,0,0,1,10.83-3.25,7,7,0,0,1,2.57.41,4.1,4.1,0,0,0,5.4-2.27c1.92-4.25,3.73-8.59,6.88-12.1,2.48-2.77,5.31-5.26,8-7.82,6.74-6.35,14.9-10.49,23.13-14.44,3.52-1.7,7.37-2.7,11-4.28a18.54,18.54,0,0,1,7.35-2.1,7.66,7.66,0,0,1,2.77.36c-1.73,1.22-3.42,2.52-5.21,3.65-5.86,3.69-11.78,7.26-17.61,11a38.16,38.16,0,0,0-5.34,4.25c-2.64,2.46-2.28,6.45,2,7.71a15.31,15.31,0,0,0,5.06.39c10.31-.63,20.61-1.38,30.92-2,5.27-.33,10.55-.71,15.83-.71a49.63,49.63,0,0,1,17.27,2.87c3.89,1.43,7.72,3,11.56,4.58a14,14,0,0,1,1.75,1c-1.34.67-2.42,1.34-3.59,1.78a31.58,31.58,0,0,0-15.2,11.75c-1.32,1.92-2.56,3.9-3.92,5.8a9.23,9.23,0,0,0-1.24,7.61,8.45,8.45,0,0,0,3.12,4.63,33.2,33.2,0,0,0,7.12,3.36c3.26,1.3,6.76,2.1,9.85,3.71a67,67,0,0,1,10.57,6.85,50,50,0,0,1,8.11,8,85.4,85.4,0,0,1,7.7,11.5c2.13,3.81,3.65,8,5.51,11.93a5.41,5.41,0,0,0,1.46,1.74,2.32,2.32,0,0,0,3.9-1.19,11.79,11.79,0,0,0-.54-7.95c-1.66-3.93-3.55-7.78-5.59-11.53-3-5.5-7.26-10-11.49-14.58a52.87,52.87,0,0,0-19.9-13.18c-3.43-1.35-7-2.37-10.47-3.61-2.09-.75-2.63-2.14-1.51-4,3-5,6.7-9.53,12-12.33a91.41,91.41,0,0,1,9.5-4.17c2.4-.95,4.11-2.51,4.33-5.06a6.53,6.53,0,0,0-3.43-6.34c-3.72-2.06-7.66-3.73-11.56-5.45-1.82-.8-3.76-1.32-5.63-2-8.52-3-17.32-3.71-26.24-3.22-7.79.43-15.57,1.16-23.36,1.62-3.26.2-6.55,0-10,0,2.86-2,5.67-4,8.57-5.86,4.95-3.22,9.84-6.57,15-9.45a42.77,42.77,0,0,1,9-3.28c9.65-2.83,19.58-1.59,29.41-1.78a19.61,19.61,0,0,1,5,.68c3.4.84,6.77,1.84,10.13,2.81,4.23,1.21,8.38,2.82,12.68,3.6,6,1.07,10.22.19,14.58-4.64a20.93,20.93,0,0,1-1,3.26c-1,2.15-2.33,4.19-3.34,6.35a4.73,4.73,0,0,0,3.08,6.41c5.09,1.16,9.25,3.91,13.06,7.26,3.48,3.05,7,6,9.65,10a11.2,11.2,0,0,1,1.7,6.52c.05,4.63-.15,9.27-.27,13.91-.05,2.31-.4,4.86,1.9,6.23a24.23,24.23,0,0,0,5.91,2.14c3.94,1.11,7.94,2,11.87,3.15a48.46,48.46,0,0,1,4.66,2.12,4,4,0,0,1,2.73,3.59,61,61,0,0,1,.1,8.22c-.56,7.43-1.66,14.81-.78,22.3.46,3.88,4.76,7.71,8.53,8.34Zm-39,14.17c-1.95,2.7-3.47,4.89-5.07,7a29.73,29.73,0,0,0-5.47,10.92,21.92,21.92,0,0,0,3.59,18.74c4.05,5.58,10.4,7.81,16.55,10.13,3.08,1.16,6.23,2.07,8.22,5a8.14,8.14,0,0,0,1.5,1.49c2.13,1.8,4.58,1,5.28-1.67s-1.33-6.76-4.64-8.32c-4.08-1.91-8.29-3.52-12.42-5.32-3.64-1.58-7-3.6-9.23-7-3.11-4.78-2.61-12.64,1.75-18.34,2.41-3.17,4.8-6.35,7.08-9.61,2.84-4.06.53-8-3.13-9.25-3.28-1.12-6.86-1.36-10.32-1.94-.86-.15-1.77,0-2.63-.23-2.21-.45-2.79-1.31-2.3-3.49.35-1.55.89-3,1.35-4.57a31.18,31.18,0,0,1,10.52-15.95,12.69,12.69,0,0,0,3.89-4.45c2-4.78,1.1-9.32-2.2-13.33-4.22-5.09-9.9-8.17-15.58-11.22-2.95-1.59-6-3-8.9-4.62-5-2.73-9.95-5.49-14.88-8.32-3.64-2.09-7.2-4.35-10.83-6.48-.84-.5-1.58-1.21-2.84-.43-3.78,2.33-3.91,5.32-.17,7.74.49.31,1,.56,1.54.85,2.54,1.46,5.07,2.93,7.62,4.37,5,2.84,10,5.7,15,8.47,4.76,2.62,9.66,5,14.37,7.73a32.32,32.32,0,0,1,9,7c2,2.36,1.91,4.14-.29,6.29a72.49,72.49,0,0,0-5.79,5.84,36.9,36.9,0,0,0-6.48,11c-1.49,4.27-3.08,8.49-2.92,13.14.11,3,1.55,5.59,4.44,6.5a56.5,56.5,0,0,0,7.7,1.58C319,239.51,321.05,239.67,323.62,240ZM309.1,335.05c2.25-.36,4.54-.59,6.75-1.11q7.18-1.68,14.32-3.6a43.63,43.63,0,0,1,15.73-.95,10,10,0,0,0,3.13-.28,2.74,2.74,0,0,0,1.86-3.18,5.64,5.64,0,0,0-4-3.83c-5.34-1.07-10.68-.51-15.92.43-5.59,1-11.07,2.57-16.62,3.81-3.22.71-6.53,1.4-9.68-.13-4.86-2.36-6.45-7-6.82-11.77-.6-7.72-.51-15.49-.84-23.23a55.56,55.56,0,0,0-3.1-17.09c-3-8-7.74-14.83-15-19.66a14.14,14.14,0,0,0-4-1.7,3.87,3.87,0,0,0-4.72,2.67c-.65,1.86.5,4,2.9,4.95,5.73,2.37,9.16,7,11.94,12.19,3.46,6.47,4.3,13.59,4.59,20.78.23,5.51.09,11,.46,16.55.29,4.36.45,8.74,2.23,12.93C294.75,328.59,301.4,335.76,309.1,335.05Z" transform="translate(-54.48 -53.46)"/><path class="cls-2" d="M206.46,395.51c-1.4-2.76-2.66-5.29-4-7.81-1.53-3-3.16-5.86-4.59-8.86-1.72-3.61-3.29-7.31-4.88-11a2.5,2.5,0,0,1,0-1.22,76.13,76.13,0,0,1,1.06-8c1-4.26-.75-7.51-3.24-10.63-.94-1.17-1.75-2.45-2.89-4.06,1.34,0,2.26,0,3.17,0,2.89-.12,4.6-2,4.32-4.83-.22-2.16-2.43-3.57-5-3.38-5.92.44-11.85.71-17.76,1.17-8.14.63-16.27,1.45-24.41,2-3.33.23-6.69,0-10,0-1.69-2.73-.74-5.49-.14-8.17.56-2.44,1.53-4.78,2.22-7.2a4.56,4.56,0,0,0,.17-2.57c-1.17-3.48-2.47-6.92-3.79-10.34-1.61-4.19-3.3-8.35-4.92-12.53a2.26,2.26,0,0,1-.07-1.36c.76-2.76,1.69-5.48,2.34-8.26,1.14-4.84,2.37-9.68,3.09-14.58.53-3.62-.76-4.67-4.45-4.45-3.46.2-6.9.58-10.36.86a6.51,6.51,0,0,1-1.92-.09c-1.84-.43-2.56-1.78-1.64-3.44,1.64-3,3.38-5.88,5.22-8.73,2.22-3.44,4.61-6.76,6.87-10.17,1.4-2.12,2.72-4.3,4.06-6.46a3.56,3.56,0,0,1,3.24-1.89c6.7-.16,13.4-.43,20.09-.73,5.7-.26,11.39-.62,17.08-.93.52,0,1,0,1.23,0,.51,1.67.57,3.53,1.53,4.56s2.75,1,4.09,1.48a27,27,0,0,1-2,2.33c-2.08,2-2.57,4.16-.92,6.34.69.91,2.09,1.27,3.38,2,0,.22-.09.73-.15,1.24a5,5,0,0,0,2.6,4.91c1.6.8,3.74-.23,4.94-1.93a35.81,35.81,0,0,1,5.36-6.55,5.94,5.94,0,0,0,2.35-5.54c2.93,0,3.35-2.21,4.22-4.3a69.84,69.84,0,0,1,4.48-9c.48-.81,2-1,3.13-1.39a34.37,34.37,0,0,1,5.73-1.52c4.94-.64,9.91-1.07,14.87-1.56,1.61-.16,2.2.51,2.24,2.23a40.55,40.55,0,0,1-4.22,19.19c-2.46,5-5,10-7.44,15a17.62,17.62,0,0,0-1.71,3.83c-.61,2.78-2.64,3.7-5,4.24-2,.45-2.51,2-2.74,3.64s.17,3.49,1.85,4a12.61,12.61,0,0,0,5.12,0,12.12,12.12,0,0,0,3.76-1.39,4.86,4.86,0,0,0,2-1.84c1.22-2.25,2.26-4.6,3.38-6.91a3.6,3.6,0,0,1,.34-.52,64.6,64.6,0,0,1,14,13,52.53,52.53,0,0,1,9,15.39,111.45,111.45,0,0,1,3,11.18c1.58,6.49,2.93,13,4.67,19.48,1.33,4.91,3.23,9.66,4.66,14.54a32.44,32.44,0,0,0,7.52,12.67,78.84,78.84,0,0,0,7.09,7.07c1.59,1.35,3.65,2.15,5.74,3.33-.55.28-1,.56-1.5.76-4,1.55-7.94,3.07-11.89,4.64-1.46.58-2.88,1.24-4.3,1.92a6.3,6.3,0,0,0-3.75,5.94c-.1,3.43-2.43,5.56-4.83,7.49a20.93,20.93,0,0,1-4.26,2.27,6.32,6.32,0,0,1-1.76.18c0-1.23,0-2.27,0-3.32-.05-3.3-1.29-6.26-2.66-9.18-2.05-4.35-5.51-7.37-9.33-10.09-.88-.63-1.57-1.52-2.41-2.23a3.37,3.37,0,0,0-5.39,1.31,21.06,21.06,0,0,0-1,4.26c-.61,3.74-.64,7.52-2.33,11.11-2.47,5.26-8,7.54-13.38,4.87-2.75-1.35-5.23.11-6.28,3.81a20.38,20.38,0,0,1-.64,2.19C207.46,393.76,207,394.46,206.46,395.51Zm-4.88-74.86a11.61,11.61,0,0,0,.6,3.07,3.34,3.34,0,0,0,3.71,1.78,3.68,3.68,0,0,0,3.12-3.17c.93-5.07,1.72-10.17,2.69-15.23.84-4.36,1.76-8.71,2.83-13,.59-2.39-1.63-5.58-4.09-5.49-1.76.06-3.26,1.94-3.73,4.43-1,5.52-2.2,11-3.24,16.54C202.78,313.24,202.21,317,201.58,320.65Zm18.48-87.16c-3.92.09-7,1.66-9.94,3.43a21,21,0,0,0-5,4.17,22.27,22.27,0,0,0-3.49,5.71c-.8,1.86.86,4.35,2.88,4.93a5,5,0,0,0,5.34-2.44c2-4.77,5.93-7,10.41-7.52,1.62-.19,3.06-.55,3.8-2.27C225.26,236.73,223.18,233,220.06,233.49ZM207.57,260c.35,2.23,1.49,4,3.24,4.53s3.34,0,4.67-1.91a34,34,0,0,0,2.07-3.36,49.45,49.45,0,0,0,2.5-5.19,3.51,3.51,0,0,0-.22-2.35,4.27,4.27,0,0,0-4-2.6,5.41,5.41,0,0,0-4.09,3.47,38,38,0,0,1-2.37,4.21C208.74,257.88,208.16,259,207.57,260Z" transform="translate(-54.48 -53.46)"/><path class="cls-2" d="M264.26,413.91c-1.51,2.36-3.51,3.16-6.43,3a103.45,103.45,0,0,0-14.4.54c-1.06.1-2.16,1.73-2.89,2.88a55.15,55.15,0,0,0-2.7,5.38l-.46-.1c-.28-1.18-.57-2.35-.84-3.47,2.82-1.74,3.65-3.86,2.38-6-.81-1.37-2.11-2.28-3.66-1.85a5.91,5.91,0,0,1-5-1.13,29.28,29.28,0,0,0-9.36-3.77c-3.3-.79-5.72.4-7.12,3.52-1.63,3.61-3,7.32-4.36,11-1.2,3.32.28,5.79,3.7,6.5,2.7.56,5.43,1,8.09,1.71a10.3,10.3,0,0,1,3.77,2.23,3.75,3.75,0,0,1-1.23.12c-8.06-1.75-16.13-3.5-24.17-5.33-2.71-.62-2.69-.72-2.26-3.75,2.23.09,4.11-.63,4.68-3.07.24-1-.07-2.2.3-3.13a42.06,42.06,0,0,1,2.92-6.09c1.09-1.84,2.58-3.43,3.7-5.25a39.52,39.52,0,0,0,2-4.39,4.86,4.86,0,0,1,.4-.67c1.65.66,3.15,1.63,4.76,1.86,5.07.72,9.91-3.65,10.06-8.78,0-.64.37-1.63.83-1.83,3-1.3,4.67-3.91,6.43-6.42,2.45-3.5,3.44-7.5,4-11.87,3.9,3.72,6.43,7.84,6.34,13.22,0,2.19,0,4.35,1.54,6.15,2.22,2.55,5.08,3.23,8.25,2.79,2.91-.4,5.36-1.91,7.71-3.59a25.25,25.25,0,0,0,7.18-8.75c.23-.41.6-.88.56-1.28-.35-3.9,2.94-4.19,5.29-5.33s5-2.21,7.47-3.26c1.34-.57,2.71-1.07,4.09-1.51.31-.1,1,.08,1.06.3.95,2.3,3.37,3.68,3.63,6.51.43,4.9,5.07,6.28,8.61,6,3-.2,6.08-.58,9.12-.77a4.37,4.37,0,0,0,3.72-2.83A21.26,21.26,0,0,0,313.43,370c-.38-1.7-.71-3.4-1-4.83,1.69-.58,3.42-1.17,5.15-1.78,3.5-1.24,6.46-1.2,8.74,2.57,1.47,2.44,3.68,4.45,5.66,6.55.39.41,1.26.39,1.93.49a23.92,23.92,0,0,1,3.2.41c3.22,1,6.39,2.09,9.59,3.1,1.34.41,1.27,1.44,1.09,2.39a7.43,7.43,0,0,0,1.17,5.19c1.58,2.77,3.55,3.46,6.6,2.35,2.57-.94,5.19-1.86,5.07-5.22,3.54-.73,4.81,2,6.66,4.1a7.4,7.4,0,0,1-.76.94c-2.47,2.23-5,4.43-7.42,6.66a1.86,1.86,0,0,1-2.44.27,33.62,33.62,0,0,0-5.72-1.51c-1.95-.49-3.94-.89-5.86-1.52-2.24-.73-3.19-.05-5.72,2.29-3,2.73-3.66,6.52-5.51,9.76-.86,1.5-1.17,3.32-2,4.81a4.61,4.61,0,0,1-2.41,1.47c-5.8,2-11.65,1-17.39-.17-2.52-.5-4.75-2.3-7.21-3.28-2.72-1.08-5.24-3-8.44-2.48a5.16,5.16,0,0,0-1.83.53,19.91,19.91,0,0,1-11.44,3.08,51.82,51.82,0,0,0-6.86.44c0-1.71.05-3.46,0-5.2a3.59,3.59,0,0,0-5.23-3,8.45,8.45,0,0,1-4.26,1.48,3.32,3.32,0,0,0-3.26,2.71c-.28,1.19-.78,2.33-1.07,3.53C261.44,410.18,261.6,410.76,264.26,413.91Zm60-31.16a3.59,3.59,0,0,0-4.21,1.84,23.93,23.93,0,0,0-2.42,5.74c-.77,3.74,1.35,5.52,4.63,5.43a15.11,15.11,0,0,0,3.12-.48c4.84-1.2,5.55-2.27,4.9-7.26a.88.88,0,0,0,0-.17C329.28,384.88,327.63,381.91,324.22,382.75Z" transform="translate(-54.48 -53.46)"/><path class="cls-2" d="M139.71,231.4c.38-2.28-1.15-3.78-2.44-5.18-2.41-2.61-5.09-5-7.66-7.47-1.1-1.06-.45-2.17,0-3.23,2.58-6.05,5.28-12.05,7.76-18.14,1.39-3.44,2.44-7,3.68-10.65,1.68,1.45,4.91,1.77,6.42.67,6-4.38,12.9-6.91,19.93-9.08,3.35-1,6.71-2,10.1-2.95a34.15,34.15,0,0,1,4.43-.58c-1.25,2.54-2.22,4.77-3.41,6.87a20.35,20.35,0,0,0-3,11.22,5.93,5.93,0,0,0,4.58,5.7,28.05,28.05,0,0,1,3.34,1c1.66.62,1.87,1.33.89,2.9s-2.23,3.39-3.33,5.11c-2.11,3.3-2.73,7.09-3.19,10.84-.43,3.54-.38,7.14-.57,11.24H170.4c-4.69.16-9.38.24-14.06.51C150.79,230.53,145.25,231,139.71,231.4Z" transform="translate(-54.48 -53.46)"/><path class="cls-2" d="M322.15,417.49c-3.28,1.59-6.53,3.28-9.86,4.75a60.18,60.18,0,0,1-7.76,2.86c-8.24,2.36-16.5,4.66-24.78,6.84A135.66,135.66,0,0,1,241.94,436h-2.55c1-1.22,1.73-2,2.31-2.92,1.51-2.35,2.91-4.77,4.44-7.1a2.18,2.18,0,0,1,1.47-.9c4.22-.16,8.44-.31,12.65-.28a10.05,10.05,0,0,0,7.07-3c2.66-2.44,5.05-5.13,8.29-6.93a13,13,0,0,1,7-1.32A32.73,32.73,0,0,0,294,412c.05,0,.12,0,.16-.05,3.45-2.82,6.28-.33,9.23,1.09a41.18,41.18,0,0,0,13.15,3.58c1.8.22,3.62.33,5.43.49Z" transform="translate(-54.48 -53.46)"/><path class="cls-4" d="M120,221c3.57,3.63,8,6.22,11.06,10.69l-10.15.46C120.64,228.36,120.34,224.7,120,221Z" transform="translate(-54.48 -53.46)"/><path class="cls-5" d="M139.71,231.4c5.54-.4,11.08-.87,16.63-1.18,4.68-.27,9.37-.35,14.06-.51-2.56.21-5.12.45-7.69.6-3,.18-6,.23-9,.44-4,.29-8,.71-12,1A8,8,0,0,1,139.71,231.4Z" transform="translate(-54.48 -53.46)"/><path class="cls-6" d="M121.77,246.74l-.38-6.16,4.62-.28C124.54,242.52,123.29,244.43,121.77,246.74Z" transform="translate(-54.48 -53.46)"/><path d="M323.62,240c-2.57-.3-4.65-.46-6.7-.81a56.5,56.5,0,0,1-7.7-1.58c-2.89-.91-4.33-3.46-4.44-6.5-.16-4.65,1.43-8.87,2.92-13.14a36.9,36.9,0,0,1,6.48-11,72.49,72.49,0,0,1,5.79-5.84c2.2-2.15,2.25-3.93.29-6.29a32.32,32.32,0,0,0-9-7c-4.71-2.73-9.61-5.11-14.37-7.73-5-2.77-10-5.63-15-8.47-2.55-1.44-5.08-2.91-7.62-4.37-.51-.29-1-.54-1.54-.85-3.74-2.42-3.61-5.41.17-7.74,1.26-.78,2-.07,2.84.43,3.63,2.13,7.19,4.39,10.83,6.48,4.93,2.83,9.89,5.59,14.88,8.32,2.93,1.6,6,3,8.9,4.62,5.68,3,11.36,6.13,15.58,11.22,3.3,4,4.24,8.55,2.2,13.33a12.69,12.69,0,0,1-3.89,4.45,31.18,31.18,0,0,0-10.52,15.95c-.46,1.52-1,3-1.35,4.57-.49,2.18.09,3,2.3,3.49.86.18,1.77.08,2.63.23,3.46.58,7,.82,10.32,1.94,3.66,1.25,6,5.19,3.13,9.25-2.28,3.26-4.67,6.44-7.08,9.61-4.36,5.7-4.86,13.56-1.75,18.34,2.22,3.42,5.59,5.44,9.23,7,4.13,1.8,8.34,3.41,12.42,5.32,3.31,1.56,5.36,5.55,4.64,8.32s-3.15,3.47-5.28,1.67a8.14,8.14,0,0,1-1.5-1.49c-2-2.92-5.14-3.83-8.22-5-6.15-2.32-12.5-4.55-16.55-10.13a21.92,21.92,0,0,1-3.59-18.74A29.73,29.73,0,0,1,318.55,247C320.15,244.86,321.67,242.67,323.62,240Z" transform="translate(-54.48 -53.46)"/><path d="M309.1,335.05c-7.7.71-14.35-6.46-16.8-12.22-1.78-4.19-1.94-8.57-2.23-12.93-.37-5.5-.23-11-.46-16.55-.29-7.19-1.13-14.31-4.59-20.78-2.78-5.19-6.21-9.82-11.94-12.19-2.4-1-3.55-3.09-2.9-4.95a3.87,3.87,0,0,1,4.72-2.67,14.14,14.14,0,0,1,4,1.7c7.23,4.83,12,11.68,15,19.66a55.56,55.56,0,0,1,3.1,17.09c.33,7.74.24,15.51.84,23.23.37,4.79,2,9.41,6.82,11.77,3.15,1.53,6.46.84,9.68.13,5.55-1.24,11-2.82,16.62-3.81,5.24-.94,10.58-1.5,15.92-.43a5.64,5.64,0,0,1,4,3.83,2.74,2.74,0,0,1-1.86,3.18,10,10,0,0,1-3.13.28,43.63,43.63,0,0,0-15.73.95q-7.12,1.92-14.32,3.6C313.64,334.46,311.35,334.69,309.1,335.05Z" transform="translate(-54.48 -53.46)"/><path d="M201.58,320.65c.63-3.7,1.2-7.41,1.89-11.09,1-5.52,2.2-11,3.24-16.54.47-2.49,2-4.37,3.73-4.43,2.46-.09,4.68,3.1,4.09,5.49-1.07,4.31-2,8.66-2.83,13-1,5.06-1.76,10.16-2.69,15.23a3.68,3.68,0,0,1-3.12,3.17,3.34,3.34,0,0,1-3.71-1.78A11.61,11.61,0,0,1,201.58,320.65Z" transform="translate(-54.48 -53.46)"/><path d="M220.06,233.49c3.12-.47,5.2,3.24,4,6-.74,1.72-2.18,2.08-3.8,2.27-4.48.53-8.43,2.75-10.41,7.52a5,5,0,0,1-5.34,2.44c-2-.58-3.68-3.07-2.88-4.93a22.27,22.27,0,0,1,3.49-5.71,21,21,0,0,1,5-4.17C213.05,235.15,216.14,233.58,220.06,233.49Z" transform="translate(-54.48 -53.46)"/><path d="M207.57,260c.59-1.06,1.17-2.14,1.77-3.2a38,38,0,0,0,2.37-4.21,5.41,5.41,0,0,1,4.09-3.47,4.27,4.27,0,0,1,4,2.6,3.51,3.51,0,0,1,.22,2.35,49.45,49.45,0,0,1-2.5,5.19,34,34,0,0,1-2.07,3.36c-1.33,1.88-2.93,2.5-4.67,1.91S207.92,262.25,207.57,260Z" transform="translate(-54.48 -53.46)"/><path d="M324.22,382.75c3.41-.84,5.06,2.13,6,5.1a.88.88,0,0,1,0,.17c.65,5-.06,6.06-4.9,7.26a15.11,15.11,0,0,1-3.12.48c-3.28.09-5.4-1.69-4.63-5.43a23.93,23.93,0,0,1,2.42-5.74A3.59,3.59,0,0,1,324.22,382.75Z" transform="translate(-54.48 -53.46)"/></svg>