<?xml version="1.0" encoding="UTF-8"?>
<svg width="1253px" height="1006px" viewBox="0 0 1253 1006" version="1.1" xmlns="http://www.w3.org/2000/svg" xmlns:xlink="http://www.w3.org/1999/xlink">
    <title>Group</title>
    <g id="graphics" stroke="none" stroke-width="1" fill="none" fill-rule="evenodd">
        <g id="Desktop-HD" transform="translate(-360.000000, -325.000000)">
            <g id="Group" transform="translate(368.728979, 325.000000)">
                <circle id="Oval" fill-opacity="0" fill="#FFEFD5" cx="364.271021" cy="800" r="200"></circle>
                <circle id="Oval" fill-opacity="0" fill="#FFEFD5" cx="914.271021" cy="500" r="200"></circle>
                <circle id="Oval" fill-opacity="0" fill="#FFEFD5" cx="364.271021" cy="200" r="200"></circle>
                <text id="Business-Analysis" font-family="Futura-Bold, Futura" font-size="100" font-weight="bold" line-spacing="100" fill="#9D3A53">
                    <tspan x="138.271021" y="204">Business</tspan>
                    <tspan x="138.271021" y="304">Analysis</tspan>
                </text>
                <text id="Marketing-Strategy" font-family="Futura-Bold, Futura" font-size="100" font-weight="bold" line-spacing="100" fill="#9D3A53">
                    <tspan x="139.271021" y="804">Marketing</tspan>
                    <tspan x="139.271021" y="904">Strategy</tspan>
                </text>
                <text id="Optimized-Web" font-family="Futura-Bold, Futura" font-size="100" font-weight="bold" line-spacing="130" fill="#9D3A53">
                    <tspan x="689.271021" y="489">Optimized</tspan>
                    <tspan x="689.271021" y="619">Web </tspan>
                </text>
                <path id="Line" d="M103.827428,364.730766 C105.909118,368.627912 104.4374,373.474717 100.540254,375.556407 C38.4765756,408.708194 8,452.799086 8,508.5 C8,544.466743 24.7273555,574.997687 58.8017721,600.543839 L71.2162815,575.889421 C72.4608066,573.417728 75.4733965,572.422912 77.9450895,573.667437 C78.6398728,574.017268 79.2436647,574.524058 79.7086485,575.147673 L79.7086485,575.147673 L129.148482,641.454116 C130.802663,643.672628 130.345182,646.812066 128.12667,648.466247 C127.257517,649.11431 126.201616,649.462989 125.117456,649.459948 L125.117456,649.459948 L42.4084015,649.227949 C39.6410835,649.220187 37.4040217,646.970539 37.411784,644.203221 C37.413966,643.425339 37.5972292,642.658648 37.9470603,641.963864 L37.9470603,641.963864 L51.5014311,615.042103 C12.0542642,586.290993 -8,550.616517 -8,508.5 C-8,446.455553 26.0374383,397.213111 93.0017873,361.443593 C96.8989333,359.361903 101.745738,360.833621 103.827428,364.730766 Z" fill="#8E1C39" fill-rule="nonzero"></path>
                <path id="Line" d="M892.073565,757.205043 C893.167762,754.663224 896.115335,753.489695 898.657154,754.583892 C899.652969,755.012569 900.482885,755.752667 901.022332,756.693097 L901.022332,756.693097 L942.175942,828.437239 C943.552878,830.837688 942.723158,833.899864 940.322709,835.276801 C939.647952,835.663852 938.892346,835.888487 938.11573,835.932916 L938.11573,835.932916 L908.023635,837.65519 C902.848058,886.193086 881.980182,921.397886 845.506164,942.45617 C791.774096,973.478393 732.110171,968.622328 667.650686,928.51426 C663.899316,926.180077 662.750459,921.246763 665.084641,917.495393 C667.418823,913.744024 672.352138,912.595166 676.103507,914.929349 C735.845637,952.102177 789.267757,956.45022 837.506164,928.599763 C868.654257,910.616403 886.731149,880.864643 891.817571,838.5823 L864.258973,840.158147 C861.496162,840.316203 859.128331,838.204632 858.970274,835.441821 C858.925845,834.665205 859.062843,833.888911 859.370417,833.174415 L859.370417,833.174415 Z" fill="#8E1C39" fill-rule="nonzero"></path>
                <path id="Line" d="M670.584405,51.9001215 C672.139563,49.6111055 675.255881,49.0161957 677.544897,50.5713532 C678.188331,51.0085019 678.721148,51.5894552 679.101154,52.2682051 L679.101154,52.2682051 L693.805801,78.5301579 C739.698426,61.9058703 780.487381,65.230144 815.401955,88.7803219 C866.839133,123.475136 888.629474,179.229476 880.837759,254.747498 C880.384302,259.142444 876.453895,262.337653 872.058948,261.884196 C867.664001,261.430739 864.468792,257.500332 864.922249,253.105385 C872.14374,183.114019 852.633019,133.192479 806.454869,102.044923 C776.635551,81.9315394 741.969751,78.7274745 701.735041,92.6926957 L715.239984,116.817861 C716.591854,119.232516 715.730298,122.285887 713.315644,123.637758 C712.636894,124.017763 711.87899,124.23452 711.101954,124.270861 L711.101954,124.270861 L628.482883,128.134863 C625.718576,128.264146 623.372857,126.128038 623.243573,123.36373 C623.192923,122.28075 623.494896,121.210554 624.104164,120.31378 L624.104164,120.31378 Z" fill="#8E1C39" fill-rule="nonzero"></path>
            </g>
        </g>
    </g>
</svg>